{
	"asset":{
		"generator":"Khronos glTF Blender I/O v5.2.40",
		"version":"2.0"
	},
	"scene":0,
	"scenes":[
		{
			"name":"Scene",
			"nodes":[
				0
			]
		}
	],
	"nodes":[
		{
			"mesh":0,
			"name":"ceiling_board_122.001"
		}
	],
	"materials":[
		{
			"doubleSided":true,
			"name":"ceiling",
			"normalTexture":{
				"index":0,
				"scale":0.800000011920929
			},
			"pbrMetallicRoughness":{
				"baseColorTexture":{
					"index":1
				},
				"metallicRoughnessTexture":{
					"index":2
				}
			}
		}
	],
	"meshes":[
		{
			"name":"ceiling_board_122_editable_mesh.001",
			"primitives":[
				{
					"attributes":{
						"POSITION":0,
						"NORMAL":1,
						"TEXCOORD_0":2,
						"TEXCOORD_1":3,
						"TANGENT":4,
						"COLOR_0":5
					},
					"indices":6,
					"material":0
				}
			]
		}
	],
	"textures":[
		{
			"sampler":0,
			"source":0
		},
		{
			"sampler":0,
			"source":1
		},
		{
			"sampler":0,
			"source":2
		}
	],
	"images":[
		{
			"mimeType":"image/png",
			"name":"ceiling_normal",
			"uri":"textures/ceiling_normal.png"
		},
		{
			"mimeType":"image/png",
			"name":"ceiling_basecolor",
			"uri":"textures/ceiling_basecolor.png"
		},
		{
			"mimeType":"image/png",
			"name":"ceiling_orm",
			"uri":"textures/ceiling_orm.png"
		}
	],
	"accessors":[
		{
			"bufferView":0,
			"componentType":5126,
			"count":304,
			"max":[
				0.5985000133514404,
				0.024000000208616257,
				0.29350000619888306
			],
			"min":[
				-0.5985000133514404,
				0,
				-0.29350000619888306
			],
			"type":"VEC3"
		},
		{
			"bufferView":1,
			"componentType":5126,
			"count":304,
			"type":"VEC3"
		},
		{
			"bufferView":2,
			"componentType":5126,
			"count":304,
			"type":"VEC2"
		},
		{
			"bufferView":3,
			"componentType":5126,
			"count":304,
			"type":"VEC2"
		},
		{
			"bufferView":4,
			"componentType":5126,
			"count":304,
			"type":"VEC4"
		},
		{
			"bufferView":5,
			"componentType":5123,
			"count":304,
			"normalized":true,
			"type":"VEC4"
		},
		{
			"bufferView":6,
			"componentType":5123,
			"count":948,
			"type":"SCALAR"
		}
	],
	"bufferViews":[
		{
			"buffer":0,
			"byteLength":3648,
			"byteOffset":0,
			"target":34962
		},
		{
			"buffer":0,
			"byteLength":3648,
			"byteOffset":3648,
			"target":34962
		},
		{
			"buffer":0,
			"byteLength":2432,
			"byteOffset":7296,
			"target":34962
		},
		{
			"buffer":0,
			"byteLength":2432,
			"byteOffset":9728,
			"target":34962
		},
		{
			"buffer":0,
			"byteLength":4864,
			"byteOffset":12160,
			"target":34962
		},
		{
			"buffer":0,
			"byteLength":2432,
			"byteOffset":17024,
			"target":34962
		},
		{
			"buffer":0,
			"byteLength":1896,
			"byteOffset":19456,
			"target":34963
		}
	],
	"samplers":[
		{
			"magFilter":9729,
			"minFilter":9987
		}
	],
	"buffers":[
		{
			"byteLength":21352,
			"uri":"ceiling_board_122.bin"
		}
	]
}
