{
	"asset":{
		"generator":"Khronos glTF Blender I/O v5.2.40",
		"version":"2.0"
	},
	"scene":0,
	"scenes":[
		{
			"name":"Scene",
			"nodes":[
				0
			]
		}
	],
	"nodes":[
		{
			"mesh":0,
			"name":"column_086"
		}
	],
	"materials":[
		{
			"doubleSided":true,
			"name":"wallpaper",
			"normalTexture":{
				"index":0,
				"scale":0.800000011920929
			},
			"pbrMetallicRoughness":{
				"baseColorTexture":{
					"index":1
				},
				"metallicRoughnessTexture":{
					"index":2
				}
			}
		},
		{
			"doubleSided":true,
			"name":"baseboard",
			"normalTexture":{
				"index":3,
				"scale":0.800000011920929
			},
			"pbrMetallicRoughness":{
				"baseColorTexture":{
					"index":4
				},
				"metallicRoughnessTexture":{
					"index":5
				}
			}
		}
	],
	"meshes":[
		{
			"name":"column_086_WrappedPier_editable_mesh.001",
			"primitives":[
				{
					"attributes":{
						"POSITION":0,
						"NORMAL":1,
						"TEXCOORD_0":2,
						"TEXCOORD_1":3,
						"TANGENT":4,
						"COLOR_0":5
					},
					"indices":6,
					"material":0
				},
				{
					"attributes":{
						"POSITION":7,
						"NORMAL":8,
						"TEXCOORD_0":9,
						"TEXCOORD_1":10,
						"TANGENT":11,
						"COLOR_0":12
					},
					"indices":13,
					"material":1
				}
			]
		}
	],
	"textures":[
		{
			"sampler":0,
			"source":0
		},
		{
			"sampler":0,
			"source":1
		},
		{
			"sampler":0,
			"source":2
		},
		{
			"sampler":0,
			"source":3
		},
		{
			"sampler":0,
			"source":4
		},
		{
			"sampler":0,
			"source":5
		}
	],
	"images":[
		{
			"mimeType":"image/png",
			"name":"wallpaper_normal",
			"uri":"textures/wallpaper_normal.png"
		},
		{
			"mimeType":"image/png",
			"name":"wallpaper_basecolor",
			"uri":"textures/wallpaper_basecolor.png"
		},
		{
			"mimeType":"image/png",
			"name":"wallpaper_orm",
			"uri":"textures/wallpaper_orm.png"
		},
		{
			"mimeType":"image/png",
			"name":"baseboard_normal",
			"uri":"textures/baseboard_normal.png"
		},
		{
			"mimeType":"image/png",
			"name":"baseboard_basecolor",
			"uri":"textures/baseboard_basecolor.png"
		},
		{
			"mimeType":"image/png",
			"name":"baseboard_orm",
			"uri":"textures/baseboard_orm.png"
		}
	],
	"accessors":[
		{
			"bufferView":0,
			"componentType":5126,
			"count":228,
			"max":[
				0.4300000071525574,
				2.7200000286102295,
				0.4300000071525574
			],
			"min":[
				-0.4300000071525574,
				0,
				-0.4300000071525574
			],
			"type":"VEC3"
		},
		{
			"bufferView":1,
			"componentType":5126,
			"count":228,
			"type":"VEC3"
		},
		{
			"bufferView":2,
			"componentType":5126,
			"count":228,
			"type":"VEC2"
		},
		{
			"bufferView":3,
			"componentType":5126,
			"count":228,
			"type":"VEC2"
		},
		{
			"bufferView":4,
			"componentType":5126,
			"count":228,
			"type":"VEC4"
		},
		{
			"bufferView":5,
			"componentType":5123,
			"count":228,
			"normalized":true,
			"type":"VEC4"
		},
		{
			"bufferView":6,
			"componentType":5123,
			"count":564,
			"type":"SCALAR"
		},
		{
			"bufferView":7,
			"componentType":5126,
			"count":1689,
			"max":[
				0.4540000557899475,
				0.10763231664896011,
				0.4540001153945923
			],
			"min":[
				-0.45399996638298035,
				0.0010000000474974513,
				-0.45399999618530273
			],
			"type":"VEC3"
		},
		{
			"bufferView":8,
			"componentType":5126,
			"count":1689,
			"type":"VEC3"
		},
		{
			"bufferView":9,
			"componentType":5126,
			"count":1689,
			"type":"VEC2"
		},
		{
			"bufferView":10,
			"componentType":5126,
			"count":1689,
			"type":"VEC2"
		},
		{
			"bufferView":11,
			"componentType":5126,
			"count":1689,
			"type":"VEC4"
		},
		{
			"bufferView":12,
			"componentType":5123,
			"count":1689,
			"normalized":true,
			"type":"VEC4"
		},
		{
			"bufferView":13,
			"componentType":5123,
			"count":4752,
			"type":"SCALAR"
		}
	],
	"bufferViews":[
		{
			"buffer":0,
			"byteLength":2736,
			"byteOffset":0,
			"target":34962
		},
		{
			"buffer":0,
			"byteLength":2736,
			"byteOffset":2736,
			"target":34962
		},
		{
			"buffer":0,
			"byteLength":1824,
			"byteOffset":5472,
			"target":34962
		},
		{
			"buffer":0,
			"byteLength":1824,
			"byteOffset":7296,
			"target":34962
		},
		{
			"buffer":0,
			"byteLength":3648,
			"byteOffset":9120,
			"target":34962
		},
		{
			"buffer":0,
			"byteLength":1824,
			"byteOffset":12768,
			"target":34962
		},
		{
			"buffer":0,
			"byteLength":1128,
			"byteOffset":14592,
			"target":34963
		},
		{
			"buffer":0,
			"byteLength":20268,
			"byteOffset":15720,
			"target":34962
		},
		{
			"buffer":0,
			"byteLength":20268,
			"byteOffset":35988,
			"target":34962
		},
		{
			"buffer":0,
			"byteLength":13512,
			"byteOffset":56256,
			"target":34962
		},
		{
			"buffer":0,
			"byteLength":13512,
			"byteOffset":69768,
			"target":34962
		},
		{
			"buffer":0,
			"byteLength":27024,
			"byteOffset":83280,
			"target":34962
		},
		{
			"buffer":0,
			"byteLength":13512,
			"byteOffset":110304,
			"target":34962
		},
		{
			"buffer":0,
			"byteLength":9504,
			"byteOffset":123816,
			"target":34963
		}
	],
	"samplers":[
		{
			"magFilter":9729,
			"minFilter":9987
		}
	],
	"buffers":[
		{
			"byteLength":133320,
			"uri":"column_086.bin"
		}
	]
}
