{
	"asset":{
		"generator":"Khronos glTF Blender I/O v5.2.40",
		"version":"2.0"
	},
	"scene":0,
	"scenes":[
		{
			"name":"Scene",
			"nodes":[
				0
			]
		}
	],
	"nodes":[
		{
			"mesh":0,
			"name":"cove_corner_090.001"
		}
	],
	"materials":[
		{
			"doubleSided":true,
			"name":"baseboard",
			"normalTexture":{
				"index":0,
				"scale":0.800000011920929
			},
			"pbrMetallicRoughness":{
				"baseColorTexture":{
					"index":1
				},
				"metallicRoughnessTexture":{
					"index":2
				}
			}
		}
	],
	"meshes":[
		{
			"name":"cove_corner_090_editable_mesh.001",
			"primitives":[
				{
					"attributes":{
						"POSITION":0,
						"NORMAL":1,
						"TEXCOORD_0":2,
						"TEXCOORD_1":3,
						"TANGENT":4,
						"COLOR_0":5
					},
					"indices":6,
					"material":0
				}
			]
		}
	],
	"textures":[
		{
			"sampler":0,
			"source":0
		},
		{
			"sampler":0,
			"source":1
		},
		{
			"sampler":0,
			"source":2
		}
	],
	"images":[
		{
			"mimeType":"image/png",
			"name":"baseboard_normal",
			"uri":"textures/baseboard_normal.png"
		},
		{
			"mimeType":"image/png",
			"name":"baseboard_basecolor",
			"uri":"textures/baseboard_basecolor.png"
		},
		{
			"mimeType":"image/png",
			"name":"baseboard_orm",
			"uri":"textures/baseboard_orm.png"
		}
	],
	"accessors":[
		{
			"bufferView":0,
			"componentType":5126,
			"count":808,
			"max":[
				0.10415000468492508,
				0.1082354485988617,
				0.10415000468492508
			],
			"min":[
				0,
				0.0008500000694766641,
				0
			],
			"type":"VEC3"
		},
		{
			"bufferView":1,
			"componentType":5126,
			"count":808,
			"type":"VEC3"
		},
		{
			"bufferView":2,
			"componentType":5126,
			"count":808,
			"type":"VEC2"
		},
		{
			"bufferView":3,
			"componentType":5126,
			"count":808,
			"type":"VEC2"
		},
		{
			"bufferView":4,
			"componentType":5126,
			"count":808,
			"type":"VEC4"
		},
		{
			"bufferView":5,
			"componentType":5123,
			"count":808,
			"normalized":true,
			"type":"VEC4"
		},
		{
			"bufferView":6,
			"componentType":5123,
			"count":1890,
			"type":"SCALAR"
		}
	],
	"bufferViews":[
		{
			"buffer":0,
			"byteLength":9696,
			"byteOffset":0,
			"target":34962
		},
		{
			"buffer":0,
			"byteLength":9696,
			"byteOffset":9696,
			"target":34962
		},
		{
			"buffer":0,
			"byteLength":6464,
			"byteOffset":19392,
			"target":34962
		},
		{
			"buffer":0,
			"byteLength":6464,
			"byteOffset":25856,
			"target":34962
		},
		{
			"buffer":0,
			"byteLength":12928,
			"byteOffset":32320,
			"target":34962
		},
		{
			"buffer":0,
			"byteLength":6464,
			"byteOffset":45248,
			"target":34962
		},
		{
			"buffer":0,
			"byteLength":3780,
			"byteOffset":51712,
			"target":34963
		}
	],
	"samplers":[
		{
			"magFilter":9729,
			"minFilter":9987
		}
	],
	"buffers":[
		{
			"byteLength":55492,
			"uri":"cove_corner_090.bin"
		}
	]
}
