{
	"asset":{
		"generator":"Khronos glTF Blender I/O v5.2.40",
		"version":"2.0"
	},
	"extensionsUsed":[
		"KHR_materials_emissive_strength"
	],
	"scene":0,
	"scenes":[
		{
			"name":"Scene",
			"nodes":[
				0
			]
		}
	],
	"nodes":[
		{
			"mesh":0,
			"name":"fixture_exposed"
		}
	],
	"materials":[
		{
			"doubleSided":true,
			"name":"painted_metal",
			"normalTexture":{
				"index":0,
				"scale":0.800000011920929
			},
			"pbrMetallicRoughness":{
				"baseColorTexture":{
					"index":1
				},
				"metallicRoughnessTexture":{
					"index":2
				}
			}
		},
		{
			"doubleSided":true,
			"emissiveFactor":[
				1,
				1,
				1
			],
			"emissiveTexture":{
				"index":3
			},
			"extensions":{
				"KHR_materials_emissive_strength":{
					"emissiveStrength":2.4000000953674316
				}
			},
			"name":"fixture_detail",
			"normalTexture":{
				"index":4,
				"scale":0.800000011920929
			},
			"pbrMetallicRoughness":{
				"baseColorTexture":{
					"index":5
				},
				"metallicRoughnessTexture":{
					"index":6
				}
			}
		}
	],
	"meshes":[
		{
			"name":"fixture_exposed_FoldedHousing_editable_mesh.001",
			"primitives":[
				{
					"attributes":{
						"POSITION":0,
						"NORMAL":1,
						"TEXCOORD_0":2,
						"TEXCOORD_1":3,
						"TANGENT":4,
						"COLOR_0":5
					},
					"indices":6,
					"material":0
				},
				{
					"attributes":{
						"POSITION":7,
						"NORMAL":8,
						"TEXCOORD_0":9,
						"TEXCOORD_1":10,
						"TANGENT":11,
						"COLOR_0":12
					},
					"indices":13,
					"material":1
				}
			]
		}
	],
	"textures":[
		{
			"sampler":0,
			"source":0
		},
		{
			"sampler":0,
			"source":1
		},
		{
			"sampler":0,
			"source":2
		},
		{
			"sampler":0,
			"source":3
		},
		{
			"sampler":0,
			"source":4
		},
		{
			"sampler":0,
			"source":5
		},
		{
			"sampler":0,
			"source":6
		}
	],
	"images":[
		{
			"mimeType":"image/png",
			"name":"painted_metal_normal",
			"uri":"textures/painted_metal_normal.png"
		},
		{
			"mimeType":"image/png",
			"name":"painted_metal_basecolor",
			"uri":"textures/painted_metal_basecolor.png"
		},
		{
			"mimeType":"image/png",
			"name":"painted_metal_orm",
			"uri":"textures/painted_metal_orm.png"
		},
		{
			"mimeType":"image/png",
			"name":"fixture_detail_emission",
			"uri":"textures/fixture_detail_emission.png"
		},
		{
			"mimeType":"image/png",
			"name":"fixture_detail_normal",
			"uri":"textures/fixture_detail_normal.png"
		},
		{
			"mimeType":"image/png",
			"name":"fixture_detail_basecolor",
			"uri":"textures/fixture_detail_basecolor.png"
		},
		{
			"mimeType":"image/png",
			"name":"fixture_detail_orm",
			"uri":"textures/fixture_detail_orm.png"
		}
	],
	"accessors":[
		{
			"bufferView":0,
			"componentType":5126,
			"count":1020,
			"max":[
				0.6029999852180481,
				0.09049999713897705,
				0.2980000078678131
			],
			"min":[
				-0.6029999852180481,
				-0.028999999165534973,
				-0.2980000078678131
			],
			"type":"VEC3"
		},
		{
			"bufferView":1,
			"componentType":5126,
			"count":1020,
			"type":"VEC3"
		},
		{
			"bufferView":2,
			"componentType":5126,
			"count":1020,
			"type":"VEC2"
		},
		{
			"bufferView":3,
			"componentType":5126,
			"count":1020,
			"type":"VEC2"
		},
		{
			"bufferView":4,
			"componentType":5126,
			"count":1020,
			"type":"VEC4"
		},
		{
			"bufferView":5,
			"componentType":5123,
			"count":1020,
			"normalized":true,
			"type":"VEC4"
		},
		{
			"bufferView":6,
			"componentType":5123,
			"count":2820,
			"type":"SCALAR"
		},
		{
			"bufferView":7,
			"componentType":5126,
			"count":5748,
			"max":[
				0.5709999799728394,
				0.029500000178813934,
				0.2687999904155731
			],
			"min":[
				-0.5709999799728394,
				-0.045499999076128006,
				-0.2843807339668274
			],
			"type":"VEC3"
		},
		{
			"bufferView":8,
			"componentType":5126,
			"count":5748,
			"type":"VEC3"
		},
		{
			"bufferView":9,
			"componentType":5126,
			"count":5748,
			"type":"VEC2"
		},
		{
			"bufferView":10,
			"componentType":5126,
			"count":5748,
			"type":"VEC2"
		},
		{
			"bufferView":11,
			"componentType":5126,
			"count":5748,
			"type":"VEC4"
		},
		{
			"bufferView":12,
			"componentType":5123,
			"count":5748,
			"normalized":true,
			"type":"VEC4"
		},
		{
			"bufferView":13,
			"componentType":5123,
			"count":13980,
			"type":"SCALAR"
		}
	],
	"bufferViews":[
		{
			"buffer":0,
			"byteLength":12240,
			"byteOffset":0,
			"target":34962
		},
		{
			"buffer":0,
			"byteLength":12240,
			"byteOffset":12240,
			"target":34962
		},
		{
			"buffer":0,
			"byteLength":8160,
			"byteOffset":24480,
			"target":34962
		},
		{
			"buffer":0,
			"byteLength":8160,
			"byteOffset":32640,
			"target":34962
		},
		{
			"buffer":0,
			"byteLength":16320,
			"byteOffset":40800,
			"target":34962
		},
		{
			"buffer":0,
			"byteLength":8160,
			"byteOffset":57120,
			"target":34962
		},
		{
			"buffer":0,
			"byteLength":5640,
			"byteOffset":65280,
			"target":34963
		},
		{
			"buffer":0,
			"byteLength":68976,
			"byteOffset":70920,
			"target":34962
		},
		{
			"buffer":0,
			"byteLength":68976,
			"byteOffset":139896,
			"target":34962
		},
		{
			"buffer":0,
			"byteLength":45984,
			"byteOffset":208872,
			"target":34962
		},
		{
			"buffer":0,
			"byteLength":45984,
			"byteOffset":254856,
			"target":34962
		},
		{
			"buffer":0,
			"byteLength":91968,
			"byteOffset":300840,
			"target":34962
		},
		{
			"buffer":0,
			"byteLength":45984,
			"byteOffset":392808,
			"target":34962
		},
		{
			"buffer":0,
			"byteLength":27960,
			"byteOffset":438792,
			"target":34963
		}
	],
	"samplers":[
		{
			"magFilter":9729,
			"minFilter":9987
		}
	],
	"buffers":[
		{
			"byteLength":466752,
			"uri":"fixture_exposed.bin"
		}
	]
}
