{
	"asset":{
		"generator":"Khronos glTF Blender I/O v5.2.40",
		"version":"2.0"
	},
	"extensionsUsed":[
		"KHR_materials_emissive_strength"
	],
	"scene":0,
	"scenes":[
		{
			"name":"Scene",
			"nodes":[
				0
			]
		}
	],
	"nodes":[
		{
			"mesh":0,
			"name":"short_service_bypass"
		}
	],
	"materials":[
		{
			"doubleSided":true,
			"name":"carpet",
			"normalTexture":{
				"index":0,
				"scale":0.800000011920929
			},
			"pbrMetallicRoughness":{
				"baseColorTexture":{
					"index":1
				},
				"metallicRoughnessTexture":{
					"index":2
				}
			}
		},
		{
			"doubleSided":true,
			"name":"ceiling",
			"normalTexture":{
				"index":3,
				"scale":0.800000011920929
			},
			"pbrMetallicRoughness":{
				"baseColorTexture":{
					"index":4
				},
				"metallicRoughnessTexture":{
					"index":5
				}
			}
		},
		{
			"doubleSided":true,
			"name":"painted_metal",
			"normalTexture":{
				"index":6,
				"scale":0.800000011920929
			},
			"pbrMetallicRoughness":{
				"baseColorTexture":{
					"index":7
				},
				"metallicRoughnessTexture":{
					"index":8
				}
			}
		},
		{
			"doubleSided":true,
			"name":"wallpaper",
			"normalTexture":{
				"index":9,
				"scale":0.800000011920929
			},
			"pbrMetallicRoughness":{
				"baseColorTexture":{
					"index":10
				},
				"metallicRoughnessTexture":{
					"index":11
				}
			}
		},
		{
			"doubleSided":true,
			"name":"baseboard",
			"normalTexture":{
				"index":12,
				"scale":0.800000011920929
			},
			"pbrMetallicRoughness":{
				"baseColorTexture":{
					"index":13
				},
				"metallicRoughnessTexture":{
					"index":14
				}
			}
		},
		{
			"doubleSided":true,
			"emissiveFactor":[
				1,
				1,
				1
			],
			"emissiveTexture":{
				"index":15
			},
			"extensions":{
				"KHR_materials_emissive_strength":{
					"emissiveStrength":2.4000000953674316
				}
			},
			"name":"fixture_detail",
			"normalTexture":{
				"index":16,
				"scale":0.800000011920929
			},
			"pbrMetallicRoughness":{
				"baseColorTexture":{
					"index":17
				},
				"metallicRoughnessTexture":{
					"index":18
				}
			}
		}
	],
	"meshes":[
		{
			"name":"service_bypass_Floor_editable_mesh.001",
			"primitives":[
				{
					"attributes":{
						"POSITION":0,
						"NORMAL":1,
						"TEXCOORD_0":2,
						"TEXCOORD_1":3,
						"TANGENT":4,
						"COLOR_0":5
					},
					"indices":6,
					"material":0
				},
				{
					"attributes":{
						"POSITION":7,
						"NORMAL":8,
						"TEXCOORD_0":9,
						"TEXCOORD_1":10,
						"TANGENT":11,
						"COLOR_0":12
					},
					"indices":13,
					"material":1
				},
				{
					"attributes":{
						"POSITION":14,
						"NORMAL":15,
						"TEXCOORD_0":16,
						"TEXCOORD_1":17,
						"TANGENT":18,
						"COLOR_0":19
					},
					"indices":20,
					"material":2
				},
				{
					"attributes":{
						"POSITION":21,
						"NORMAL":22,
						"TEXCOORD_0":23,
						"TEXCOORD_1":24,
						"TANGENT":25,
						"COLOR_0":26
					},
					"indices":27,
					"material":3
				},
				{
					"attributes":{
						"POSITION":28,
						"NORMAL":29,
						"TEXCOORD_0":30,
						"TEXCOORD_1":31,
						"TANGENT":32,
						"COLOR_0":33
					},
					"indices":34,
					"material":4
				},
				{
					"attributes":{
						"POSITION":35,
						"NORMAL":36,
						"TEXCOORD_0":37,
						"TEXCOORD_1":38,
						"TANGENT":39,
						"COLOR_0":40
					},
					"indices":41,
					"material":5
				}
			]
		}
	],
	"textures":[
		{
			"sampler":0,
			"source":0
		},
		{
			"sampler":0,
			"source":1
		},
		{
			"sampler":0,
			"source":2
		},
		{
			"sampler":0,
			"source":3
		},
		{
			"sampler":0,
			"source":4
		},
		{
			"sampler":0,
			"source":5
		},
		{
			"sampler":0,
			"source":6
		},
		{
			"sampler":0,
			"source":7
		},
		{
			"sampler":0,
			"source":8
		},
		{
			"sampler":0,
			"source":9
		},
		{
			"sampler":0,
			"source":10
		},
		{
			"sampler":0,
			"source":11
		},
		{
			"sampler":0,
			"source":12
		},
		{
			"sampler":0,
			"source":13
		},
		{
			"sampler":0,
			"source":14
		},
		{
			"sampler":0,
			"source":15
		},
		{
			"sampler":0,
			"source":16
		},
		{
			"sampler":0,
			"source":17
		},
		{
			"sampler":0,
			"source":18
		}
	],
	"images":[
		{
			"mimeType":"image/png",
			"name":"carpet_normal",
			"uri":"textures/carpet_normal.png"
		},
		{
			"mimeType":"image/png",
			"name":"carpet_basecolor",
			"uri":"textures/carpet_basecolor.png"
		},
		{
			"mimeType":"image/png",
			"name":"carpet_orm",
			"uri":"textures/carpet_orm.png"
		},
		{
			"mimeType":"image/png",
			"name":"ceiling_normal",
			"uri":"textures/ceiling_normal.png"
		},
		{
			"mimeType":"image/png",
			"name":"ceiling_basecolor",
			"uri":"textures/ceiling_basecolor.png"
		},
		{
			"mimeType":"image/png",
			"name":"ceiling_orm",
			"uri":"textures/ceiling_orm.png"
		},
		{
			"mimeType":"image/png",
			"name":"painted_metal_normal",
			"uri":"textures/painted_metal_normal.png"
		},
		{
			"mimeType":"image/png",
			"name":"painted_metal_basecolor",
			"uri":"textures/painted_metal_basecolor.png"
		},
		{
			"mimeType":"image/png",
			"name":"painted_metal_orm",
			"uri":"textures/painted_metal_orm.png"
		},
		{
			"mimeType":"image/png",
			"name":"wallpaper_normal",
			"uri":"textures/wallpaper_normal.png"
		},
		{
			"mimeType":"image/png",
			"name":"wallpaper_basecolor",
			"uri":"textures/wallpaper_basecolor.png"
		},
		{
			"mimeType":"image/png",
			"name":"wallpaper_orm",
			"uri":"textures/wallpaper_orm.png"
		},
		{
			"mimeType":"image/png",
			"name":"baseboard_normal",
			"uri":"textures/baseboard_normal.png"
		},
		{
			"mimeType":"image/png",
			"name":"baseboard_basecolor",
			"uri":"textures/baseboard_basecolor.png"
		},
		{
			"mimeType":"image/png",
			"name":"baseboard_orm",
			"uri":"textures/baseboard_orm.png"
		},
		{
			"mimeType":"image/png",
			"name":"fixture_detail_emission",
			"uri":"textures/fixture_detail_emission.png"
		},
		{
			"mimeType":"image/png",
			"name":"fixture_detail_normal",
			"uri":"textures/fixture_detail_normal.png"
		},
		{
			"mimeType":"image/png",
			"name":"fixture_detail_basecolor",
			"uri":"textures/fixture_detail_basecolor.png"
		},
		{
			"mimeType":"image/png",
			"name":"fixture_detail_orm",
			"uri":"textures/fixture_detail_orm.png"
		}
	],
	"accessors":[
		{
			"bufferView":0,
			"componentType":5126,
			"count":24,
			"max":[
				21.959999084472656,
				0,
				-4.880000114440918
			],
			"min":[
				17.079999923706055,
				-0.08399999886751175,
				-12.199999809265137
			],
			"type":"VEC3"
		},
		{
			"bufferView":1,
			"componentType":5126,
			"count":24,
			"type":"VEC3"
		},
		{
			"bufferView":2,
			"componentType":5126,
			"count":24,
			"type":"VEC2"
		},
		{
			"bufferView":3,
			"componentType":5126,
			"count":24,
			"type":"VEC2"
		},
		{
			"bufferView":4,
			"componentType":5126,
			"count":24,
			"type":"VEC4"
		},
		{
			"bufferView":5,
			"componentType":5123,
			"count":24,
			"normalized":true,
			"type":"VEC4"
		},
		{
			"bufferView":6,
			"componentType":5123,
			"count":36,
			"type":"SCALAR"
		},
		{
			"bufferView":7,
			"componentType":5126,
			"count":14530,
			"max":[
				21.94849967956543,
				2.495999813079834,
				-4.891499996185303
			],
			"min":[
				17.091501235961914,
				2.4719998836517334,
				-12.18850040435791
			],
			"type":"VEC3"
		},
		{
			"bufferView":8,
			"componentType":5126,
			"count":14530,
			"type":"VEC3"
		},
		{
			"bufferView":9,
			"componentType":5126,
			"count":14530,
			"type":"VEC2"
		},
		{
			"bufferView":10,
			"componentType":5126,
			"count":14530,
			"type":"VEC2"
		},
		{
			"bufferView":11,
			"componentType":5126,
			"count":14530,
			"type":"VEC4"
		},
		{
			"bufferView":12,
			"componentType":5123,
			"count":14530,
			"normalized":true,
			"type":"VEC4"
		},
		{
			"bufferView":13,
			"componentType":5123,
			"count":43608,
			"type":"SCALAR"
		},
		{
			"bufferView":14,
			"componentType":5126,
			"count":11097,
			"max":[
				21.972000122070312,
				2.50600004196167,
				-4.868000030517578
			],
			"min":[
				17.06800079345703,
				0.6164999604225159,
				-12.211999893188477
			],
			"type":"VEC3"
		},
		{
			"bufferView":15,
			"componentType":5126,
			"count":11097,
			"type":"VEC3"
		},
		{
			"bufferView":16,
			"componentType":5126,
			"count":11097,
			"type":"VEC2"
		},
		{
			"bufferView":17,
			"componentType":5126,
			"count":11097,
			"type":"VEC2"
		},
		{
			"bufferView":18,
			"componentType":5126,
			"count":11097,
			"type":"VEC4"
		},
		{
			"bufferView":19,
			"componentType":5123,
			"count":11097,
			"normalized":true,
			"type":"VEC4"
		},
		{
			"bufferView":20,
			"componentType":5123,
			"count":29364,
			"type":"SCALAR"
		},
		{
			"bufferView":21,
			"componentType":5126,
			"count":1058,
			"max":[
				22.03999900817871,
				2.4800000190734863,
				-4.800000190734863
			],
			"min":[
				17.079999923706055,
				0,
				-12.279999732971191
			],
			"type":"VEC3"
		},
		{
			"bufferView":22,
			"componentType":5126,
			"count":1058,
			"type":"VEC3"
		},
		{
			"bufferView":23,
			"componentType":5126,
			"count":1058,
			"type":"VEC2"
		},
		{
			"bufferView":24,
			"componentType":5126,
			"count":1058,
			"type":"VEC2"
		},
		{
			"bufferView":25,
			"componentType":5126,
			"count":1058,
			"type":"VEC4"
		},
		{
			"bufferView":26,
			"componentType":5123,
			"count":1058,
			"normalized":true,
			"type":"VEC4"
		},
		{
			"bufferView":27,
			"componentType":5123,
			"count":2820,
			"type":"SCALAR"
		},
		{
			"bufferView":28,
			"componentType":5126,
			"count":4222,
			"max":[
				22.06399917602539,
				0.10763231664896011,
				-4.776000022888184
			],
			"min":[
				17.079999923706055,
				0.0010000000474974513,
				-12.303999900817871
			],
			"type":"VEC3"
		},
		{
			"bufferView":29,
			"componentType":5126,
			"count":4222,
			"type":"VEC3"
		},
		{
			"bufferView":30,
			"componentType":5126,
			"count":4222,
			"type":"VEC2"
		},
		{
			"bufferView":31,
			"componentType":5126,
			"count":4222,
			"type":"VEC2"
		},
		{
			"bufferView":32,
			"componentType":5126,
			"count":4222,
			"type":"VEC4"
		},
		{
			"bufferView":33,
			"componentType":5123,
			"count":4222,
			"normalized":true,
			"type":"VEC4"
		},
		{
			"bufferView":34,
			"componentType":5123,
			"count":11880,
			"type":"SCALAR"
		},
		{
			"bufferView":35,
			"componentType":5126,
			"count":1078,
			"max":[
				21.88050079345703,
				0.9174999594688416,
				-5.80911922454834
			],
			"min":[
				21.82550048828125,
				0.6424999833106995,
				-6.390880584716797
			],
			"type":"VEC3"
		},
		{
			"bufferView":36,
			"componentType":5126,
			"count":1078,
			"type":"VEC3"
		},
		{
			"bufferView":37,
			"componentType":5126,
			"count":1078,
			"type":"VEC2"
		},
		{
			"bufferView":38,
			"componentType":5126,
			"count":1078,
			"type":"VEC2"
		},
		{
			"bufferView":39,
			"componentType":5126,
			"count":1078,
			"type":"VEC4"
		},
		{
			"bufferView":40,
			"componentType":5123,
			"count":1078,
			"normalized":true,
			"type":"VEC4"
		},
		{
			"bufferView":41,
			"componentType":5123,
			"count":2652,
			"type":"SCALAR"
		}
	],
	"bufferViews":[
		{
			"buffer":0,
			"byteLength":288,
			"byteOffset":0,
			"target":34962
		},
		{
			"buffer":0,
			"byteLength":288,
			"byteOffset":288,
			"target":34962
		},
		{
			"buffer":0,
			"byteLength":192,
			"byteOffset":576,
			"target":34962
		},
		{
			"buffer":0,
			"byteLength":192,
			"byteOffset":768,
			"target":34962
		},
		{
			"buffer":0,
			"byteLength":384,
			"byteOffset":960,
			"target":34962
		},
		{
			"buffer":0,
			"byteLength":192,
			"byteOffset":1344,
			"target":34962
		},
		{
			"buffer":0,
			"byteLength":72,
			"byteOffset":1536,
			"target":34963
		},
		{
			"buffer":0,
			"byteLength":174360,
			"byteOffset":1608,
			"target":34962
		},
		{
			"buffer":0,
			"byteLength":174360,
			"byteOffset":175968,
			"target":34962
		},
		{
			"buffer":0,
			"byteLength":116240,
			"byteOffset":350328,
			"target":34962
		},
		{
			"buffer":0,
			"byteLength":116240,
			"byteOffset":466568,
			"target":34962
		},
		{
			"buffer":0,
			"byteLength":232480,
			"byteOffset":582808,
			"target":34962
		},
		{
			"buffer":0,
			"byteLength":116240,
			"byteOffset":815288,
			"target":34962
		},
		{
			"buffer":0,
			"byteLength":87216,
			"byteOffset":931528,
			"target":34963
		},
		{
			"buffer":0,
			"byteLength":133164,
			"byteOffset":1018744,
			"target":34962
		},
		{
			"buffer":0,
			"byteLength":133164,
			"byteOffset":1151908,
			"target":34962
		},
		{
			"buffer":0,
			"byteLength":88776,
			"byteOffset":1285072,
			"target":34962
		},
		{
			"buffer":0,
			"byteLength":88776,
			"byteOffset":1373848,
			"target":34962
		},
		{
			"buffer":0,
			"byteLength":177552,
			"byteOffset":1462624,
			"target":34962
		},
		{
			"buffer":0,
			"byteLength":88776,
			"byteOffset":1640176,
			"target":34962
		},
		{
			"buffer":0,
			"byteLength":58728,
			"byteOffset":1728952,
			"target":34963
		},
		{
			"buffer":0,
			"byteLength":12696,
			"byteOffset":1787680,
			"target":34962
		},
		{
			"buffer":0,
			"byteLength":12696,
			"byteOffset":1800376,
			"target":34962
		},
		{
			"buffer":0,
			"byteLength":8464,
			"byteOffset":1813072,
			"target":34962
		},
		{
			"buffer":0,
			"byteLength":8464,
			"byteOffset":1821536,
			"target":34962
		},
		{
			"buffer":0,
			"byteLength":16928,
			"byteOffset":1830000,
			"target":34962
		},
		{
			"buffer":0,
			"byteLength":8464,
			"byteOffset":1846928,
			"target":34962
		},
		{
			"buffer":0,
			"byteLength":5640,
			"byteOffset":1855392,
			"target":34963
		},
		{
			"buffer":0,
			"byteLength":50664,
			"byteOffset":1861032,
			"target":34962
		},
		{
			"buffer":0,
			"byteLength":50664,
			"byteOffset":1911696,
			"target":34962
		},
		{
			"buffer":0,
			"byteLength":33776,
			"byteOffset":1962360,
			"target":34962
		},
		{
			"buffer":0,
			"byteLength":33776,
			"byteOffset":1996136,
			"target":34962
		},
		{
			"buffer":0,
			"byteLength":67552,
			"byteOffset":2029912,
			"target":34962
		},
		{
			"buffer":0,
			"byteLength":33776,
			"byteOffset":2097464,
			"target":34962
		},
		{
			"buffer":0,
			"byteLength":23760,
			"byteOffset":2131240,
			"target":34963
		},
		{
			"buffer":0,
			"byteLength":12936,
			"byteOffset":2155000,
			"target":34962
		},
		{
			"buffer":0,
			"byteLength":12936,
			"byteOffset":2167936,
			"target":34962
		},
		{
			"buffer":0,
			"byteLength":8624,
			"byteOffset":2180872,
			"target":34962
		},
		{
			"buffer":0,
			"byteLength":8624,
			"byteOffset":2189496,
			"target":34962
		},
		{
			"buffer":0,
			"byteLength":17248,
			"byteOffset":2198120,
			"target":34962
		},
		{
			"buffer":0,
			"byteLength":8624,
			"byteOffset":2215368,
			"target":34962
		},
		{
			"buffer":0,
			"byteLength":5304,
			"byteOffset":2223992,
			"target":34963
		}
	],
	"samplers":[
		{
			"magFilter":9729,
			"minFilter":9987
		}
	],
	"buffers":[
		{
			"byteLength":2229296,
			"uri":"short_service_bypass.bin"
		}
	]
}
