{
	"asset":{
		"generator":"Khronos glTF Blender I/O v5.2.40",
		"version":"2.0"
	},
	"scene":0,
	"scenes":[
		{
			"name":"Scene",
			"nodes":[
				0
			]
		}
	],
	"nodes":[
		{
			"mesh":0,
			"name":"short_blackout"
		}
	],
	"materials":[
		{
			"doubleSided":true,
			"name":"carpet",
			"normalTexture":{
				"index":0,
				"scale":0.800000011920929
			},
			"pbrMetallicRoughness":{
				"baseColorTexture":{
					"index":1
				},
				"metallicRoughnessTexture":{
					"index":2
				}
			}
		},
		{
			"doubleSided":true,
			"name":"ceiling",
			"normalTexture":{
				"index":3,
				"scale":0.800000011920929
			},
			"pbrMetallicRoughness":{
				"baseColorTexture":{
					"index":4
				},
				"metallicRoughnessTexture":{
					"index":5
				}
			}
		},
		{
			"doubleSided":true,
			"name":"painted_metal",
			"normalTexture":{
				"index":6,
				"scale":0.800000011920929
			},
			"pbrMetallicRoughness":{
				"baseColorTexture":{
					"index":7
				},
				"metallicRoughnessTexture":{
					"index":8
				}
			}
		},
		{
			"doubleSided":true,
			"name":"wallpaper",
			"normalTexture":{
				"index":9,
				"scale":0.800000011920929
			},
			"pbrMetallicRoughness":{
				"baseColorTexture":{
					"index":10
				},
				"metallicRoughnessTexture":{
					"index":11
				}
			}
		},
		{
			"doubleSided":true,
			"name":"baseboard",
			"normalTexture":{
				"index":12,
				"scale":0.800000011920929
			},
			"pbrMetallicRoughness":{
				"baseColorTexture":{
					"index":13
				},
				"metallicRoughnessTexture":{
					"index":14
				}
			}
		}
	],
	"meshes":[
		{
			"name":"blackout_Floor_editable_mesh.001",
			"primitives":[
				{
					"attributes":{
						"POSITION":0,
						"NORMAL":1,
						"TEXCOORD_0":2,
						"TEXCOORD_1":3,
						"TANGENT":4,
						"COLOR_0":5
					},
					"indices":6,
					"material":0
				},
				{
					"attributes":{
						"POSITION":7,
						"NORMAL":8,
						"TEXCOORD_0":9,
						"TEXCOORD_1":10,
						"TANGENT":11,
						"COLOR_0":12
					},
					"indices":13,
					"material":1
				},
				{
					"attributes":{
						"POSITION":14,
						"NORMAL":15,
						"TEXCOORD_0":16,
						"TEXCOORD_1":17,
						"TANGENT":18,
						"COLOR_0":19
					},
					"indices":20,
					"material":2
				},
				{
					"attributes":{
						"POSITION":21,
						"NORMAL":22,
						"TEXCOORD_0":23,
						"TEXCOORD_1":24,
						"TANGENT":25,
						"COLOR_0":26
					},
					"indices":27,
					"material":3
				},
				{
					"attributes":{
						"POSITION":28,
						"NORMAL":29,
						"TEXCOORD_0":30,
						"TEXCOORD_1":31,
						"TANGENT":32,
						"COLOR_0":33
					},
					"indices":34,
					"material":4
				}
			]
		}
	],
	"textures":[
		{
			"sampler":0,
			"source":0
		},
		{
			"sampler":0,
			"source":1
		},
		{
			"sampler":0,
			"source":2
		},
		{
			"sampler":0,
			"source":3
		},
		{
			"sampler":0,
			"source":4
		},
		{
			"sampler":0,
			"source":5
		},
		{
			"sampler":0,
			"source":6
		},
		{
			"sampler":0,
			"source":7
		},
		{
			"sampler":0,
			"source":8
		},
		{
			"sampler":0,
			"source":9
		},
		{
			"sampler":0,
			"source":10
		},
		{
			"sampler":0,
			"source":11
		},
		{
			"sampler":0,
			"source":12
		},
		{
			"sampler":0,
			"source":13
		},
		{
			"sampler":0,
			"source":14
		}
	],
	"images":[
		{
			"mimeType":"image/png",
			"name":"carpet_normal",
			"uri":"textures/carpet_normal.png"
		},
		{
			"mimeType":"image/png",
			"name":"carpet_basecolor",
			"uri":"textures/carpet_basecolor.png"
		},
		{
			"mimeType":"image/png",
			"name":"carpet_orm",
			"uri":"textures/carpet_orm.png"
		},
		{
			"mimeType":"image/png",
			"name":"ceiling_normal",
			"uri":"textures/ceiling_normal.png"
		},
		{
			"mimeType":"image/png",
			"name":"ceiling_basecolor",
			"uri":"textures/ceiling_basecolor.png"
		},
		{
			"mimeType":"image/png",
			"name":"ceiling_orm",
			"uri":"textures/ceiling_orm.png"
		},
		{
			"mimeType":"image/png",
			"name":"painted_metal_normal",
			"uri":"textures/painted_metal_normal.png"
		},
		{
			"mimeType":"image/png",
			"name":"painted_metal_basecolor",
			"uri":"textures/painted_metal_basecolor.png"
		},
		{
			"mimeType":"image/png",
			"name":"painted_metal_orm",
			"uri":"textures/painted_metal_orm.png"
		},
		{
			"mimeType":"image/png",
			"name":"wallpaper_normal",
			"uri":"textures/wallpaper_normal.png"
		},
		{
			"mimeType":"image/png",
			"name":"wallpaper_basecolor",
			"uri":"textures/wallpaper_basecolor.png"
		},
		{
			"mimeType":"image/png",
			"name":"wallpaper_orm",
			"uri":"textures/wallpaper_orm.png"
		},
		{
			"mimeType":"image/png",
			"name":"baseboard_normal",
			"uri":"textures/baseboard_normal.png"
		},
		{
			"mimeType":"image/png",
			"name":"baseboard_basecolor",
			"uri":"textures/baseboard_basecolor.png"
		},
		{
			"mimeType":"image/png",
			"name":"baseboard_orm",
			"uri":"textures/baseboard_orm.png"
		}
	],
	"accessors":[
		{
			"bufferView":0,
			"componentType":5126,
			"count":24,
			"max":[
				17.079999923706055,
				0,
				-12.199999809265137
			],
			"min":[
				12.199999809265137,
				-0.08399999886751175,
				-20.739999771118164
			],
			"type":"VEC3"
		},
		{
			"bufferView":1,
			"componentType":5126,
			"count":24,
			"type":"VEC3"
		},
		{
			"bufferView":2,
			"componentType":5126,
			"count":24,
			"type":"VEC2"
		},
		{
			"bufferView":3,
			"componentType":5126,
			"count":24,
			"type":"VEC2"
		},
		{
			"bufferView":4,
			"componentType":5126,
			"count":24,
			"type":"VEC4"
		},
		{
			"bufferView":5,
			"componentType":5123,
			"count":24,
			"normalized":true,
			"type":"VEC4"
		},
		{
			"bufferView":6,
			"componentType":5123,
			"count":36,
			"type":"SCALAR"
		},
		{
			"bufferView":7,
			"componentType":5126,
			"count":16625,
			"max":[
				17.068498611450195,
				2.495999813079834,
				-12.21150016784668
			],
			"min":[
				12.21150016784668,
				2.4719998836517334,
				-20.728500366210938
			],
			"type":"VEC3"
		},
		{
			"bufferView":8,
			"componentType":5126,
			"count":16625,
			"type":"VEC3"
		},
		{
			"bufferView":9,
			"componentType":5126,
			"count":16625,
			"type":"VEC2"
		},
		{
			"bufferView":10,
			"componentType":5126,
			"count":16625,
			"type":"VEC2"
		},
		{
			"bufferView":11,
			"componentType":5126,
			"count":16625,
			"type":"VEC4"
		},
		{
			"bufferView":12,
			"componentType":5123,
			"count":16625,
			"normalized":true,
			"type":"VEC4"
		},
		{
			"bufferView":13,
			"componentType":5123,
			"count":51192,
			"type":"SCALAR"
		},
		{
			"bufferView":14,
			"componentType":5126,
			"count":8285,
			"max":[
				17.09200096130371,
				2.50600004196167,
				-12.187999725341797
			],
			"min":[
				12.187999725341797,
				2.4660000801086426,
				-20.751998901367188
			],
			"type":"VEC3"
		},
		{
			"bufferView":15,
			"componentType":5126,
			"count":8285,
			"type":"VEC3"
		},
		{
			"bufferView":16,
			"componentType":5126,
			"count":8285,
			"type":"VEC2"
		},
		{
			"bufferView":17,
			"componentType":5126,
			"count":8285,
			"type":"VEC2"
		},
		{
			"bufferView":18,
			"componentType":5126,
			"count":8285,
			"type":"VEC4"
		},
		{
			"bufferView":19,
			"componentType":5123,
			"count":8285,
			"normalized":true,
			"type":"VEC4"
		},
		{
			"bufferView":20,
			"componentType":5123,
			"count":22800,
			"type":"SCALAR"
		},
		{
			"bufferView":21,
			"componentType":5126,
			"count":1012,
			"max":[
				17.15999984741211,
				2.7200000286102295,
				-12.199999809265137
			],
			"min":[
				12.119999885559082,
				0,
				-20.81999969482422
			],
			"type":"VEC3"
		},
		{
			"bufferView":22,
			"componentType":5126,
			"count":1012,
			"type":"VEC3"
		},
		{
			"bufferView":23,
			"componentType":5126,
			"count":1012,
			"type":"VEC2"
		},
		{
			"bufferView":24,
			"componentType":5126,
			"count":1012,
			"type":"VEC2"
		},
		{
			"bufferView":25,
			"componentType":5126,
			"count":1012,
			"type":"VEC4"
		},
		{
			"bufferView":26,
			"componentType":5123,
			"count":1012,
			"normalized":true,
			"type":"VEC4"
		},
		{
			"bufferView":27,
			"componentType":5123,
			"count":2820,
			"type":"SCALAR"
		},
		{
			"bufferView":28,
			"componentType":5126,
			"count":4934,
			"max":[
				17.18400001525879,
				0.10763231664896011,
				-12.199999809265137
			],
			"min":[
				12.095999717712402,
				0.0010000000474974513,
				-20.8439998626709
			],
			"type":"VEC3"
		},
		{
			"bufferView":29,
			"componentType":5126,
			"count":4934,
			"type":"VEC3"
		},
		{
			"bufferView":30,
			"componentType":5126,
			"count":4934,
			"type":"VEC2"
		},
		{
			"bufferView":31,
			"componentType":5126,
			"count":4934,
			"type":"VEC2"
		},
		{
			"bufferView":32,
			"componentType":5126,
			"count":4934,
			"type":"VEC4"
		},
		{
			"bufferView":33,
			"componentType":5123,
			"count":4934,
			"normalized":true,
			"type":"VEC4"
		},
		{
			"bufferView":34,
			"componentType":5123,
			"count":14256,
			"type":"SCALAR"
		}
	],
	"bufferViews":[
		{
			"buffer":0,
			"byteLength":288,
			"byteOffset":0,
			"target":34962
		},
		{
			"buffer":0,
			"byteLength":288,
			"byteOffset":288,
			"target":34962
		},
		{
			"buffer":0,
			"byteLength":192,
			"byteOffset":576,
			"target":34962
		},
		{
			"buffer":0,
			"byteLength":192,
			"byteOffset":768,
			"target":34962
		},
		{
			"buffer":0,
			"byteLength":384,
			"byteOffset":960,
			"target":34962
		},
		{
			"buffer":0,
			"byteLength":192,
			"byteOffset":1344,
			"target":34962
		},
		{
			"buffer":0,
			"byteLength":72,
			"byteOffset":1536,
			"target":34963
		},
		{
			"buffer":0,
			"byteLength":199500,
			"byteOffset":1608,
			"target":34962
		},
		{
			"buffer":0,
			"byteLength":199500,
			"byteOffset":201108,
			"target":34962
		},
		{
			"buffer":0,
			"byteLength":133000,
			"byteOffset":400608,
			"target":34962
		},
		{
			"buffer":0,
			"byteLength":133000,
			"byteOffset":533608,
			"target":34962
		},
		{
			"buffer":0,
			"byteLength":266000,
			"byteOffset":666608,
			"target":34962
		},
		{
			"buffer":0,
			"byteLength":133000,
			"byteOffset":932608,
			"target":34962
		},
		{
			"buffer":0,
			"byteLength":102384,
			"byteOffset":1065608,
			"target":34963
		},
		{
			"buffer":0,
			"byteLength":99420,
			"byteOffset":1167992,
			"target":34962
		},
		{
			"buffer":0,
			"byteLength":99420,
			"byteOffset":1267412,
			"target":34962
		},
		{
			"buffer":0,
			"byteLength":66280,
			"byteOffset":1366832,
			"target":34962
		},
		{
			"buffer":0,
			"byteLength":66280,
			"byteOffset":1433112,
			"target":34962
		},
		{
			"buffer":0,
			"byteLength":132560,
			"byteOffset":1499392,
			"target":34962
		},
		{
			"buffer":0,
			"byteLength":66280,
			"byteOffset":1631952,
			"target":34962
		},
		{
			"buffer":0,
			"byteLength":45600,
			"byteOffset":1698232,
			"target":34963
		},
		{
			"buffer":0,
			"byteLength":12144,
			"byteOffset":1743832,
			"target":34962
		},
		{
			"buffer":0,
			"byteLength":12144,
			"byteOffset":1755976,
			"target":34962
		},
		{
			"buffer":0,
			"byteLength":8096,
			"byteOffset":1768120,
			"target":34962
		},
		{
			"buffer":0,
			"byteLength":8096,
			"byteOffset":1776216,
			"target":34962
		},
		{
			"buffer":0,
			"byteLength":16192,
			"byteOffset":1784312,
			"target":34962
		},
		{
			"buffer":0,
			"byteLength":8096,
			"byteOffset":1800504,
			"target":34962
		},
		{
			"buffer":0,
			"byteLength":5640,
			"byteOffset":1808600,
			"target":34963
		},
		{
			"buffer":0,
			"byteLength":59208,
			"byteOffset":1814240,
			"target":34962
		},
		{
			"buffer":0,
			"byteLength":59208,
			"byteOffset":1873448,
			"target":34962
		},
		{
			"buffer":0,
			"byteLength":39472,
			"byteOffset":1932656,
			"target":34962
		},
		{
			"buffer":0,
			"byteLength":39472,
			"byteOffset":1972128,
			"target":34962
		},
		{
			"buffer":0,
			"byteLength":78944,
			"byteOffset":2011600,
			"target":34962
		},
		{
			"buffer":0,
			"byteLength":39472,
			"byteOffset":2090544,
			"target":34962
		},
		{
			"buffer":0,
			"byteLength":28512,
			"byteOffset":2130016,
			"target":34963
		}
	],
	"samplers":[
		{
			"magFilter":9729,
			"minFilter":9987
		}
	],
	"buffers":[
		{
			"byteLength":2158528,
			"uri":"short_blackout.bin"
		}
	]
}
