{
	"asset":{
		"generator":"Khronos glTF Blender I/O v5.2.40",
		"version":"2.0"
	},
	"scene":0,
	"scenes":[
		{
			"name":"Scene",
			"nodes":[
				0
			]
		}
	],
	"nodes":[
		{
			"mesh":0,
			"name":"short_arrival"
		}
	],
	"materials":[
		{
			"doubleSided":true,
			"name":"carpet",
			"normalTexture":{
				"index":0,
				"scale":0.800000011920929
			},
			"pbrMetallicRoughness":{
				"baseColorTexture":{
					"index":1
				},
				"metallicRoughnessTexture":{
					"index":2
				}
			}
		},
		{
			"doubleSided":true,
			"name":"ceiling",
			"normalTexture":{
				"index":3,
				"scale":0.800000011920929
			},
			"pbrMetallicRoughness":{
				"baseColorTexture":{
					"index":4
				},
				"metallicRoughnessTexture":{
					"index":5
				}
			}
		},
		{
			"doubleSided":true,
			"name":"painted_metal",
			"normalTexture":{
				"index":6,
				"scale":0.800000011920929
			},
			"pbrMetallicRoughness":{
				"baseColorTexture":{
					"index":7
				},
				"metallicRoughnessTexture":{
					"index":8
				}
			}
		},
		{
			"doubleSided":true,
			"name":"wallpaper",
			"normalTexture":{
				"index":9,
				"scale":0.800000011920929
			},
			"pbrMetallicRoughness":{
				"baseColorTexture":{
					"index":10
				},
				"metallicRoughnessTexture":{
					"index":11
				}
			}
		},
		{
			"doubleSided":true,
			"name":"baseboard",
			"normalTexture":{
				"index":12,
				"scale":0.800000011920929
			},
			"pbrMetallicRoughness":{
				"baseColorTexture":{
					"index":13
				},
				"metallicRoughnessTexture":{
					"index":14
				}
			}
		}
	],
	"meshes":[
		{
			"name":"arrival_Floor_editable_mesh.001",
			"primitives":[
				{
					"attributes":{
						"POSITION":0,
						"NORMAL":1,
						"TEXCOORD_0":2,
						"TEXCOORD_1":3,
						"TANGENT":4,
						"COLOR_0":5
					},
					"indices":6,
					"material":0
				},
				{
					"attributes":{
						"POSITION":7,
						"NORMAL":8,
						"TEXCOORD_0":9,
						"TEXCOORD_1":10,
						"TANGENT":11,
						"COLOR_0":12
					},
					"indices":13,
					"material":1
				},
				{
					"attributes":{
						"POSITION":14,
						"NORMAL":15,
						"TEXCOORD_0":16,
						"TEXCOORD_1":17,
						"TANGENT":18,
						"COLOR_0":19
					},
					"indices":20,
					"material":2
				},
				{
					"attributes":{
						"POSITION":21,
						"NORMAL":22,
						"TEXCOORD_0":23,
						"TEXCOORD_1":24,
						"TANGENT":25,
						"COLOR_0":26
					},
					"indices":27,
					"material":3
				},
				{
					"attributes":{
						"POSITION":28,
						"NORMAL":29,
						"TEXCOORD_0":30,
						"TEXCOORD_1":31,
						"TANGENT":32,
						"COLOR_0":33
					},
					"indices":34,
					"material":4
				}
			]
		}
	],
	"textures":[
		{
			"sampler":0,
			"source":0
		},
		{
			"sampler":0,
			"source":1
		},
		{
			"sampler":0,
			"source":2
		},
		{
			"sampler":0,
			"source":3
		},
		{
			"sampler":0,
			"source":4
		},
		{
			"sampler":0,
			"source":5
		},
		{
			"sampler":0,
			"source":6
		},
		{
			"sampler":0,
			"source":7
		},
		{
			"sampler":0,
			"source":8
		},
		{
			"sampler":0,
			"source":9
		},
		{
			"sampler":0,
			"source":10
		},
		{
			"sampler":0,
			"source":11
		},
		{
			"sampler":0,
			"source":12
		},
		{
			"sampler":0,
			"source":13
		},
		{
			"sampler":0,
			"source":14
		}
	],
	"images":[
		{
			"mimeType":"image/png",
			"name":"carpet_normal",
			"uri":"textures/carpet_normal.png"
		},
		{
			"mimeType":"image/png",
			"name":"carpet_basecolor",
			"uri":"textures/carpet_basecolor.png"
		},
		{
			"mimeType":"image/png",
			"name":"carpet_orm",
			"uri":"textures/carpet_orm.png"
		},
		{
			"mimeType":"image/png",
			"name":"ceiling_normal",
			"uri":"textures/ceiling_normal.png"
		},
		{
			"mimeType":"image/png",
			"name":"ceiling_basecolor",
			"uri":"textures/ceiling_basecolor.png"
		},
		{
			"mimeType":"image/png",
			"name":"ceiling_orm",
			"uri":"textures/ceiling_orm.png"
		},
		{
			"mimeType":"image/png",
			"name":"painted_metal_normal",
			"uri":"textures/painted_metal_normal.png"
		},
		{
			"mimeType":"image/png",
			"name":"painted_metal_basecolor",
			"uri":"textures/painted_metal_basecolor.png"
		},
		{
			"mimeType":"image/png",
			"name":"painted_metal_orm",
			"uri":"textures/painted_metal_orm.png"
		},
		{
			"mimeType":"image/png",
			"name":"wallpaper_normal",
			"uri":"textures/wallpaper_normal.png"
		},
		{
			"mimeType":"image/png",
			"name":"wallpaper_basecolor",
			"uri":"textures/wallpaper_basecolor.png"
		},
		{
			"mimeType":"image/png",
			"name":"wallpaper_orm",
			"uri":"textures/wallpaper_orm.png"
		},
		{
			"mimeType":"image/png",
			"name":"baseboard_normal",
			"uri":"textures/baseboard_normal.png"
		},
		{
			"mimeType":"image/png",
			"name":"baseboard_basecolor",
			"uri":"textures/baseboard_basecolor.png"
		},
		{
			"mimeType":"image/png",
			"name":"baseboard_orm",
			"uri":"textures/baseboard_orm.png"
		}
	],
	"accessors":[
		{
			"bufferView":0,
			"componentType":5126,
			"count":24,
			"max":[
				6.099999904632568,
				0,
				8.539999961853027
			],
			"min":[
				-1.2200000286102295,
				-0.08399999886751175,
				2.440000057220459
			],
			"type":"VEC3"
		},
		{
			"bufferView":1,
			"componentType":5126,
			"count":24,
			"type":"VEC3"
		},
		{
			"bufferView":2,
			"componentType":5126,
			"count":24,
			"type":"VEC2"
		},
		{
			"bufferView":3,
			"componentType":5126,
			"count":24,
			"type":"VEC2"
		},
		{
			"bufferView":4,
			"componentType":5126,
			"count":24,
			"type":"VEC4"
		},
		{
			"bufferView":5,
			"componentType":5123,
			"count":24,
			"normalized":true,
			"type":"VEC4"
		},
		{
			"bufferView":6,
			"componentType":5123,
			"count":36,
			"type":"SCALAR"
		},
		{
			"bufferView":7,
			"componentType":5126,
			"count":17439,
			"max":[
				6.088500022888184,
				2.735999822616577,
				8.528499603271484
			],
			"min":[
				-1.2085001468658447,
				2.7119998931884766,
				2.4514997005462646
			],
			"type":"VEC3"
		},
		{
			"bufferView":8,
			"componentType":5126,
			"count":17439,
			"type":"VEC3"
		},
		{
			"bufferView":9,
			"componentType":5126,
			"count":17439,
			"type":"VEC2"
		},
		{
			"bufferView":10,
			"componentType":5126,
			"count":17439,
			"type":"VEC2"
		},
		{
			"bufferView":11,
			"componentType":5126,
			"count":17439,
			"type":"VEC4"
		},
		{
			"bufferView":12,
			"componentType":5123,
			"count":17439,
			"normalized":true,
			"type":"VEC4"
		},
		{
			"bufferView":13,
			"componentType":5123,
			"count":54984,
			"type":"SCALAR"
		},
		{
			"bufferView":14,
			"componentType":5126,
			"count":7510,
			"max":[
				6.112000465393066,
				2.746000051498413,
				8.552000045776367
			],
			"min":[
				-1.2319999933242798,
				2.7060000896453857,
				2.427999973297119
			],
			"type":"VEC3"
		},
		{
			"bufferView":15,
			"componentType":5126,
			"count":7510,
			"type":"VEC3"
		},
		{
			"bufferView":16,
			"componentType":5126,
			"count":7510,
			"type":"VEC2"
		},
		{
			"bufferView":17,
			"componentType":5126,
			"count":7510,
			"type":"VEC2"
		},
		{
			"bufferView":18,
			"componentType":5126,
			"count":7510,
			"type":"VEC4"
		},
		{
			"bufferView":19,
			"componentType":5123,
			"count":7510,
			"normalized":true,
			"type":"VEC4"
		},
		{
			"bufferView":20,
			"componentType":5123,
			"count":20520,
			"type":"SCALAR"
		},
		{
			"bufferView":21,
			"componentType":5126,
			"count":1403,
			"max":[
				6.180000305175781,
				2.7200000286102295,
				8.619999885559082
			],
			"min":[
				-1.3000000715255737,
				0,
				2.3600001335144043
			],
			"type":"VEC3"
		},
		{
			"bufferView":22,
			"componentType":5126,
			"count":1403,
			"type":"VEC3"
		},
		{
			"bufferView":23,
			"componentType":5126,
			"count":1403,
			"type":"VEC2"
		},
		{
			"bufferView":24,
			"componentType":5126,
			"count":1403,
			"type":"VEC2"
		},
		{
			"bufferView":25,
			"componentType":5126,
			"count":1403,
			"type":"VEC4"
		},
		{
			"bufferView":26,
			"componentType":5123,
			"count":1403,
			"normalized":true,
			"type":"VEC4"
		},
		{
			"bufferView":27,
			"componentType":5123,
			"count":3948,
			"type":"SCALAR"
		},
		{
			"bufferView":28,
			"componentType":5126,
			"count":4832,
			"max":[
				6.204000473022461,
				0.10763231664896011,
				8.644000053405762
			],
			"min":[
				-1.3240000009536743,
				0.0010000000474974513,
				2.3359999656677246
			],
			"type":"VEC3"
		},
		{
			"bufferView":29,
			"componentType":5126,
			"count":4832,
			"type":"VEC3"
		},
		{
			"bufferView":30,
			"componentType":5126,
			"count":4832,
			"type":"VEC2"
		},
		{
			"bufferView":31,
			"componentType":5126,
			"count":4832,
			"type":"VEC2"
		},
		{
			"bufferView":32,
			"componentType":5126,
			"count":4832,
			"type":"VEC4"
		},
		{
			"bufferView":33,
			"componentType":5123,
			"count":4832,
			"normalized":true,
			"type":"VEC4"
		},
		{
			"bufferView":34,
			"componentType":5123,
			"count":14256,
			"type":"SCALAR"
		}
	],
	"bufferViews":[
		{
			"buffer":0,
			"byteLength":288,
			"byteOffset":0,
			"target":34962
		},
		{
			"buffer":0,
			"byteLength":288,
			"byteOffset":288,
			"target":34962
		},
		{
			"buffer":0,
			"byteLength":192,
			"byteOffset":576,
			"target":34962
		},
		{
			"buffer":0,
			"byteLength":192,
			"byteOffset":768,
			"target":34962
		},
		{
			"buffer":0,
			"byteLength":384,
			"byteOffset":960,
			"target":34962
		},
		{
			"buffer":0,
			"byteLength":192,
			"byteOffset":1344,
			"target":34962
		},
		{
			"buffer":0,
			"byteLength":72,
			"byteOffset":1536,
			"target":34963
		},
		{
			"buffer":0,
			"byteLength":209268,
			"byteOffset":1608,
			"target":34962
		},
		{
			"buffer":0,
			"byteLength":209268,
			"byteOffset":210876,
			"target":34962
		},
		{
			"buffer":0,
			"byteLength":139512,
			"byteOffset":420144,
			"target":34962
		},
		{
			"buffer":0,
			"byteLength":139512,
			"byteOffset":559656,
			"target":34962
		},
		{
			"buffer":0,
			"byteLength":279024,
			"byteOffset":699168,
			"target":34962
		},
		{
			"buffer":0,
			"byteLength":139512,
			"byteOffset":978192,
			"target":34962
		},
		{
			"buffer":0,
			"byteLength":109968,
			"byteOffset":1117704,
			"target":34963
		},
		{
			"buffer":0,
			"byteLength":90120,
			"byteOffset":1227672,
			"target":34962
		},
		{
			"buffer":0,
			"byteLength":90120,
			"byteOffset":1317792,
			"target":34962
		},
		{
			"buffer":0,
			"byteLength":60080,
			"byteOffset":1407912,
			"target":34962
		},
		{
			"buffer":0,
			"byteLength":60080,
			"byteOffset":1467992,
			"target":34962
		},
		{
			"buffer":0,
			"byteLength":120160,
			"byteOffset":1528072,
			"target":34962
		},
		{
			"buffer":0,
			"byteLength":60080,
			"byteOffset":1648232,
			"target":34962
		},
		{
			"buffer":0,
			"byteLength":41040,
			"byteOffset":1708312,
			"target":34963
		},
		{
			"buffer":0,
			"byteLength":16836,
			"byteOffset":1749352,
			"target":34962
		},
		{
			"buffer":0,
			"byteLength":16836,
			"byteOffset":1766188,
			"target":34962
		},
		{
			"buffer":0,
			"byteLength":11224,
			"byteOffset":1783024,
			"target":34962
		},
		{
			"buffer":0,
			"byteLength":11224,
			"byteOffset":1794248,
			"target":34962
		},
		{
			"buffer":0,
			"byteLength":22448,
			"byteOffset":1805472,
			"target":34962
		},
		{
			"buffer":0,
			"byteLength":11224,
			"byteOffset":1827920,
			"target":34962
		},
		{
			"buffer":0,
			"byteLength":7896,
			"byteOffset":1839144,
			"target":34963
		},
		{
			"buffer":0,
			"byteLength":57984,
			"byteOffset":1847040,
			"target":34962
		},
		{
			"buffer":0,
			"byteLength":57984,
			"byteOffset":1905024,
			"target":34962
		},
		{
			"buffer":0,
			"byteLength":38656,
			"byteOffset":1963008,
			"target":34962
		},
		{
			"buffer":0,
			"byteLength":38656,
			"byteOffset":2001664,
			"target":34962
		},
		{
			"buffer":0,
			"byteLength":77312,
			"byteOffset":2040320,
			"target":34962
		},
		{
			"buffer":0,
			"byteLength":38656,
			"byteOffset":2117632,
			"target":34962
		},
		{
			"buffer":0,
			"byteLength":28512,
			"byteOffset":2156288,
			"target":34963
		}
	],
	"samplers":[
		{
			"magFilter":9729,
			"minFilter":9987
		}
	],
	"buffers":[
		{
			"byteLength":2184800,
			"uri":"short_arrival.bin"
		}
	]
}
