{
	"asset":{
		"generator":"Khronos glTF Blender I/O v5.2.40",
		"version":"2.0"
	},
	"scene":0,
	"scenes":[
		{
			"name":"Scene",
			"nodes":[
				0
			]
		}
	],
	"nodes":[
		{
			"mesh":0,
			"name":"wall_portal_244"
		}
	],
	"materials":[
		{
			"doubleSided":true,
			"name":"wallpaper",
			"normalTexture":{
				"index":0,
				"scale":0.800000011920929
			},
			"pbrMetallicRoughness":{
				"baseColorTexture":{
					"index":1
				},
				"metallicRoughnessTexture":{
					"index":2
				}
			}
		},
		{
			"doubleSided":true,
			"name":"baseboard",
			"normalTexture":{
				"index":3,
				"scale":0.800000011920929
			},
			"pbrMetallicRoughness":{
				"baseColorTexture":{
					"index":4
				},
				"metallicRoughnessTexture":{
					"index":5
				}
			}
		},
		{
			"doubleSided":true,
			"name":"painted_metal",
			"normalTexture":{
				"index":6,
				"scale":0.800000011920929
			},
			"pbrMetallicRoughness":{
				"baseColorTexture":{
					"index":7
				},
				"metallicRoughnessTexture":{
					"index":8
				}
			}
		}
	],
	"meshes":[
		{
			"name":"wall_portal_244_Pier_editable_mesh.002",
			"primitives":[
				{
					"attributes":{
						"POSITION":0,
						"NORMAL":1,
						"TEXCOORD_0":2,
						"TEXCOORD_1":3,
						"TANGENT":4,
						"COLOR_0":5
					},
					"indices":6,
					"material":0
				},
				{
					"attributes":{
						"POSITION":7,
						"NORMAL":8,
						"TEXCOORD_0":9,
						"TEXCOORD_1":10,
						"TANGENT":11,
						"COLOR_0":12
					},
					"indices":13,
					"material":1
				},
				{
					"attributes":{
						"POSITION":14,
						"NORMAL":15,
						"TEXCOORD_0":16,
						"TEXCOORD_1":17,
						"TANGENT":18,
						"COLOR_0":19
					},
					"indices":20,
					"material":2
				}
			]
		}
	],
	"textures":[
		{
			"sampler":0,
			"source":0
		},
		{
			"sampler":0,
			"source":1
		},
		{
			"sampler":0,
			"source":2
		},
		{
			"sampler":0,
			"source":3
		},
		{
			"sampler":0,
			"source":4
		},
		{
			"sampler":0,
			"source":5
		},
		{
			"sampler":0,
			"source":6
		},
		{
			"sampler":0,
			"source":7
		},
		{
			"sampler":0,
			"source":8
		}
	],
	"images":[
		{
			"mimeType":"image/png",
			"name":"wallpaper_normal",
			"uri":"textures/wallpaper_normal.png"
		},
		{
			"mimeType":"image/png",
			"name":"wallpaper_basecolor",
			"uri":"textures/wallpaper_basecolor.png"
		},
		{
			"mimeType":"image/png",
			"name":"wallpaper_orm",
			"uri":"textures/wallpaper_orm.png"
		},
		{
			"mimeType":"image/png",
			"name":"baseboard_normal",
			"uri":"textures/baseboard_normal.png"
		},
		{
			"mimeType":"image/png",
			"name":"baseboard_basecolor",
			"uri":"textures/baseboard_basecolor.png"
		},
		{
			"mimeType":"image/png",
			"name":"baseboard_orm",
			"uri":"textures/baseboard_orm.png"
		},
		{
			"mimeType":"image/png",
			"name":"painted_metal_normal",
			"uri":"textures/painted_metal_normal.png"
		},
		{
			"mimeType":"image/png",
			"name":"painted_metal_basecolor",
			"uri":"textures/painted_metal_basecolor.png"
		},
		{
			"mimeType":"image/png",
			"name":"painted_metal_orm",
			"uri":"textures/painted_metal_orm.png"
		}
	],
	"accessors":[
		{
			"bufferView":0,
			"componentType":5126,
			"count":630,
			"max":[
				2.440000057220459,
				2.7200000286102295,
				0.07999999821186066
			],
			"min":[
				0,
				0,
				-0.07999999821186066
			],
			"type":"VEC3"
		},
		{
			"bufferView":1,
			"componentType":5126,
			"count":630,
			"type":"VEC3"
		},
		{
			"bufferView":2,
			"componentType":5126,
			"count":630,
			"type":"VEC2"
		},
		{
			"bufferView":3,
			"componentType":5126,
			"count":630,
			"type":"VEC2"
		},
		{
			"bufferView":4,
			"componentType":5126,
			"count":630,
			"type":"VEC4"
		},
		{
			"bufferView":5,
			"componentType":5123,
			"count":630,
			"normalized":true,
			"type":"VEC4"
		},
		{
			"bufferView":6,
			"componentType":5123,
			"count":1692,
			"type":"SCALAR"
		},
		{
			"bufferView":7,
			"componentType":5126,
			"count":1704,
			"max":[
				2.440000057220459,
				0.10763231664896011,
				0.10400000214576721
			],
			"min":[
				0,
				0.0010000000474974513,
				-0.10400000214576721
			],
			"type":"VEC3"
		},
		{
			"bufferView":8,
			"componentType":5126,
			"count":1704,
			"type":"VEC3"
		},
		{
			"bufferView":9,
			"componentType":5126,
			"count":1704,
			"type":"VEC2"
		},
		{
			"bufferView":10,
			"componentType":5126,
			"count":1704,
			"type":"VEC2"
		},
		{
			"bufferView":11,
			"componentType":5126,
			"count":1704,
			"type":"VEC4"
		},
		{
			"bufferView":12,
			"componentType":5123,
			"count":1704,
			"normalized":true,
			"type":"VEC4"
		},
		{
			"bufferView":13,
			"componentType":5123,
			"count":4752,
			"type":"SCALAR"
		},
		{
			"bufferView":14,
			"componentType":5126,
			"count":630,
			"max":[
				1.840000033378601,
				2.4570000171661377,
				0.09000000357627869
			],
			"min":[
				0.6000000238418579,
				0,
				0.07800000160932541
			],
			"type":"VEC3"
		},
		{
			"bufferView":15,
			"componentType":5126,
			"count":630,
			"type":"VEC3"
		},
		{
			"bufferView":16,
			"componentType":5126,
			"count":630,
			"type":"VEC2"
		},
		{
			"bufferView":17,
			"componentType":5126,
			"count":630,
			"type":"VEC2"
		},
		{
			"bufferView":18,
			"componentType":5126,
			"count":630,
			"type":"VEC4"
		},
		{
			"bufferView":19,
			"componentType":5123,
			"count":630,
			"normalized":true,
			"type":"VEC4"
		},
		{
			"bufferView":20,
			"componentType":5123,
			"count":1692,
			"type":"SCALAR"
		}
	],
	"bufferViews":[
		{
			"buffer":0,
			"byteLength":7560,
			"byteOffset":0,
			"target":34962
		},
		{
			"buffer":0,
			"byteLength":7560,
			"byteOffset":7560,
			"target":34962
		},
		{
			"buffer":0,
			"byteLength":5040,
			"byteOffset":15120,
			"target":34962
		},
		{
			"buffer":0,
			"byteLength":5040,
			"byteOffset":20160,
			"target":34962
		},
		{
			"buffer":0,
			"byteLength":10080,
			"byteOffset":25200,
			"target":34962
		},
		{
			"buffer":0,
			"byteLength":5040,
			"byteOffset":35280,
			"target":34962
		},
		{
			"buffer":0,
			"byteLength":3384,
			"byteOffset":40320,
			"target":34963
		},
		{
			"buffer":0,
			"byteLength":20448,
			"byteOffset":43704,
			"target":34962
		},
		{
			"buffer":0,
			"byteLength":20448,
			"byteOffset":64152,
			"target":34962
		},
		{
			"buffer":0,
			"byteLength":13632,
			"byteOffset":84600,
			"target":34962
		},
		{
			"buffer":0,
			"byteLength":13632,
			"byteOffset":98232,
			"target":34962
		},
		{
			"buffer":0,
			"byteLength":27264,
			"byteOffset":111864,
			"target":34962
		},
		{
			"buffer":0,
			"byteLength":13632,
			"byteOffset":139128,
			"target":34962
		},
		{
			"buffer":0,
			"byteLength":9504,
			"byteOffset":152760,
			"target":34963
		},
		{
			"buffer":0,
			"byteLength":7560,
			"byteOffset":162264,
			"target":34962
		},
		{
			"buffer":0,
			"byteLength":7560,
			"byteOffset":169824,
			"target":34962
		},
		{
			"buffer":0,
			"byteLength":5040,
			"byteOffset":177384,
			"target":34962
		},
		{
			"buffer":0,
			"byteLength":5040,
			"byteOffset":182424,
			"target":34962
		},
		{
			"buffer":0,
			"byteLength":10080,
			"byteOffset":187464,
			"target":34962
		},
		{
			"buffer":0,
			"byteLength":5040,
			"byteOffset":197544,
			"target":34962
		},
		{
			"buffer":0,
			"byteLength":3384,
			"byteOffset":202584,
			"target":34963
		}
	],
	"samplers":[
		{
			"magFilter":9729,
			"minFilter":9987
		}
	],
	"buffers":[
		{
			"byteLength":205968,
			"uri":"wall_portal_244.bin"
		}
	]
}
