{
	"asset":{
		"generator":"Khronos glTF Blender I/O v5.2.40",
		"version":"2.0"
	},
	"scene":0,
	"scenes":[
		{
			"name":"Scene",
			"nodes":[
				0
			]
		}
	],
	"nodes":[
		{
			"mesh":0,
			"name":"column_061"
		}
	],
	"materials":[
		{
			"doubleSided":true,
			"name":"wallpaper",
			"normalTexture":{
				"index":0,
				"scale":0.800000011920929
			},
			"pbrMetallicRoughness":{
				"baseColorTexture":{
					"index":1
				},
				"metallicRoughnessTexture":{
					"index":2
				}
			}
		},
		{
			"doubleSided":true,
			"name":"baseboard",
			"normalTexture":{
				"index":3,
				"scale":0.800000011920929
			},
			"pbrMetallicRoughness":{
				"baseColorTexture":{
					"index":4
				},
				"metallicRoughnessTexture":{
					"index":5
				}
			}
		}
	],
	"meshes":[
		{
			"name":"column_061_WrappedPier_editable_mesh.001",
			"primitives":[
				{
					"attributes":{
						"POSITION":0,
						"NORMAL":1,
						"TEXCOORD_0":2,
						"TEXCOORD_1":3,
						"TANGENT":4,
						"COLOR_0":5
					},
					"indices":6,
					"material":0
				},
				{
					"attributes":{
						"POSITION":7,
						"NORMAL":8,
						"TEXCOORD_0":9,
						"TEXCOORD_1":10,
						"TANGENT":11,
						"COLOR_0":12
					},
					"indices":13,
					"material":1
				}
			]
		}
	],
	"textures":[
		{
			"sampler":0,
			"source":0
		},
		{
			"sampler":0,
			"source":1
		},
		{
			"sampler":0,
			"source":2
		},
		{
			"sampler":0,
			"source":3
		},
		{
			"sampler":0,
			"source":4
		},
		{
			"sampler":0,
			"source":5
		}
	],
	"images":[
		{
			"mimeType":"image/png",
			"name":"wallpaper_normal",
			"uri":"textures/wallpaper_normal.png"
		},
		{
			"mimeType":"image/png",
			"name":"wallpaper_basecolor",
			"uri":"textures/wallpaper_basecolor.png"
		},
		{
			"mimeType":"image/png",
			"name":"wallpaper_orm",
			"uri":"textures/wallpaper_orm.png"
		},
		{
			"mimeType":"image/png",
			"name":"baseboard_normal",
			"uri":"textures/baseboard_normal.png"
		},
		{
			"mimeType":"image/png",
			"name":"baseboard_basecolor",
			"uri":"textures/baseboard_basecolor.png"
		},
		{
			"mimeType":"image/png",
			"name":"baseboard_orm",
			"uri":"textures/baseboard_orm.png"
		}
	],
	"accessors":[
		{
			"bufferView":0,
			"componentType":5126,
			"count":211,
			"max":[
				0.3050000071525574,
				2.7200000286102295,
				0.3050000071525574
			],
			"min":[
				-0.3050000071525574,
				0,
				-0.3050000071525574
			],
			"type":"VEC3"
		},
		{
			"bufferView":1,
			"componentType":5126,
			"count":211,
			"type":"VEC3"
		},
		{
			"bufferView":2,
			"componentType":5126,
			"count":211,
			"type":"VEC2"
		},
		{
			"bufferView":3,
			"componentType":5126,
			"count":211,
			"type":"VEC2"
		},
		{
			"bufferView":4,
			"componentType":5126,
			"count":211,
			"type":"VEC4"
		},
		{
			"bufferView":5,
			"componentType":5123,
			"count":211,
			"normalized":true,
			"type":"VEC4"
		},
		{
			"bufferView":6,
			"componentType":5123,
			"count":564,
			"type":"SCALAR"
		},
		{
			"bufferView":7,
			"componentType":5126,
			"count":1645,
			"max":[
				0.3290000557899475,
				0.10763231664896011,
				0.3290000557899475
			],
			"min":[
				-0.32899999618530273,
				0.0010000000474974513,
				-0.32899999618530273
			],
			"type":"VEC3"
		},
		{
			"bufferView":8,
			"componentType":5126,
			"count":1645,
			"type":"VEC3"
		},
		{
			"bufferView":9,
			"componentType":5126,
			"count":1645,
			"type":"VEC2"
		},
		{
			"bufferView":10,
			"componentType":5126,
			"count":1645,
			"type":"VEC2"
		},
		{
			"bufferView":11,
			"componentType":5126,
			"count":1645,
			"type":"VEC4"
		},
		{
			"bufferView":12,
			"componentType":5123,
			"count":1645,
			"normalized":true,
			"type":"VEC4"
		},
		{
			"bufferView":13,
			"componentType":5123,
			"count":4752,
			"type":"SCALAR"
		}
	],
	"bufferViews":[
		{
			"buffer":0,
			"byteLength":2532,
			"byteOffset":0,
			"target":34962
		},
		{
			"buffer":0,
			"byteLength":2532,
			"byteOffset":2532,
			"target":34962
		},
		{
			"buffer":0,
			"byteLength":1688,
			"byteOffset":5064,
			"target":34962
		},
		{
			"buffer":0,
			"byteLength":1688,
			"byteOffset":6752,
			"target":34962
		},
		{
			"buffer":0,
			"byteLength":3376,
			"byteOffset":8440,
			"target":34962
		},
		{
			"buffer":0,
			"byteLength":1688,
			"byteOffset":11816,
			"target":34962
		},
		{
			"buffer":0,
			"byteLength":1128,
			"byteOffset":13504,
			"target":34963
		},
		{
			"buffer":0,
			"byteLength":19740,
			"byteOffset":14632,
			"target":34962
		},
		{
			"buffer":0,
			"byteLength":19740,
			"byteOffset":34372,
			"target":34962
		},
		{
			"buffer":0,
			"byteLength":13160,
			"byteOffset":54112,
			"target":34962
		},
		{
			"buffer":0,
			"byteLength":13160,
			"byteOffset":67272,
			"target":34962
		},
		{
			"buffer":0,
			"byteLength":26320,
			"byteOffset":80432,
			"target":34962
		},
		{
			"buffer":0,
			"byteLength":13160,
			"byteOffset":106752,
			"target":34962
		},
		{
			"buffer":0,
			"byteLength":9504,
			"byteOffset":119912,
			"target":34963
		}
	],
	"samplers":[
		{
			"magFilter":9729,
			"minFilter":9987
		}
	],
	"buffers":[
		{
			"byteLength":129416,
			"uri":"column_061.bin"
		}
	]
}
