{
	"asset":{
		"generator":"Khronos glTF Blender I/O v5.2.40",
		"version":"2.0"
	},
	"scene":0,
	"scenes":[
		{
			"name":"Scene",
			"nodes":[
				0
			]
		}
	],
	"nodes":[
		{
			"mesh":0,
			"name":"short_exit"
		}
	],
	"materials":[
		{
			"doubleSided":true,
			"name":"carpet",
			"normalTexture":{
				"index":0,
				"scale":0.800000011920929
			},
			"pbrMetallicRoughness":{
				"baseColorTexture":{
					"index":1
				},
				"metallicRoughnessTexture":{
					"index":2
				}
			}
		},
		{
			"doubleSided":true,
			"name":"ceiling",
			"normalTexture":{
				"index":3,
				"scale":0.800000011920929
			},
			"pbrMetallicRoughness":{
				"baseColorTexture":{
					"index":4
				},
				"metallicRoughnessTexture":{
					"index":5
				}
			}
		},
		{
			"doubleSided":true,
			"name":"painted_metal",
			"normalTexture":{
				"index":6,
				"scale":0.800000011920929
			},
			"pbrMetallicRoughness":{
				"baseColorTexture":{
					"index":7
				},
				"metallicRoughnessTexture":{
					"index":8
				}
			}
		},
		{
			"doubleSided":true,
			"name":"wallpaper",
			"normalTexture":{
				"index":9,
				"scale":0.800000011920929
			},
			"pbrMetallicRoughness":{
				"baseColorTexture":{
					"index":10
				},
				"metallicRoughnessTexture":{
					"index":11
				}
			}
		},
		{
			"doubleSided":true,
			"name":"baseboard",
			"normalTexture":{
				"index":12,
				"scale":0.800000011920929
			},
			"pbrMetallicRoughness":{
				"baseColorTexture":{
					"index":13
				},
				"metallicRoughnessTexture":{
					"index":14
				}
			}
		}
	],
	"meshes":[
		{
			"name":"exit_Floor_editable_mesh.001",
			"primitives":[
				{
					"attributes":{
						"POSITION":0,
						"NORMAL":1,
						"TEXCOORD_0":2,
						"TEXCOORD_1":3,
						"TANGENT":4,
						"COLOR_0":5
					},
					"indices":6,
					"material":0
				},
				{
					"attributes":{
						"POSITION":7,
						"NORMAL":8,
						"TEXCOORD_0":9,
						"TEXCOORD_1":10,
						"TANGENT":11,
						"COLOR_0":12
					},
					"indices":13,
					"material":1
				},
				{
					"attributes":{
						"POSITION":14,
						"NORMAL":15,
						"TEXCOORD_0":16,
						"TEXCOORD_1":17,
						"TANGENT":18,
						"COLOR_0":19
					},
					"indices":20,
					"material":2
				},
				{
					"attributes":{
						"POSITION":21,
						"NORMAL":22,
						"TEXCOORD_0":23,
						"TEXCOORD_1":24,
						"TANGENT":25,
						"COLOR_0":26
					},
					"indices":27,
					"material":3
				},
				{
					"attributes":{
						"POSITION":28,
						"NORMAL":29,
						"TEXCOORD_0":30,
						"TEXCOORD_1":31,
						"TANGENT":32,
						"COLOR_0":33
					},
					"indices":34,
					"material":4
				}
			]
		}
	],
	"textures":[
		{
			"sampler":0,
			"source":0
		},
		{
			"sampler":0,
			"source":1
		},
		{
			"sampler":0,
			"source":2
		},
		{
			"sampler":0,
			"source":3
		},
		{
			"sampler":0,
			"source":4
		},
		{
			"sampler":0,
			"source":5
		},
		{
			"sampler":0,
			"source":6
		},
		{
			"sampler":0,
			"source":7
		},
		{
			"sampler":0,
			"source":8
		},
		{
			"sampler":0,
			"source":9
		},
		{
			"sampler":0,
			"source":10
		},
		{
			"sampler":0,
			"source":11
		},
		{
			"sampler":0,
			"source":12
		},
		{
			"sampler":0,
			"source":13
		},
		{
			"sampler":0,
			"source":14
		}
	],
	"images":[
		{
			"mimeType":"image/png",
			"name":"carpet_normal",
			"uri":"textures/carpet_normal.png"
		},
		{
			"mimeType":"image/png",
			"name":"carpet_basecolor",
			"uri":"textures/carpet_basecolor.png"
		},
		{
			"mimeType":"image/png",
			"name":"carpet_orm",
			"uri":"textures/carpet_orm.png"
		},
		{
			"mimeType":"image/png",
			"name":"ceiling_normal",
			"uri":"textures/ceiling_normal.png"
		},
		{
			"mimeType":"image/png",
			"name":"ceiling_basecolor",
			"uri":"textures/ceiling_basecolor.png"
		},
		{
			"mimeType":"image/png",
			"name":"ceiling_orm",
			"uri":"textures/ceiling_orm.png"
		},
		{
			"mimeType":"image/png",
			"name":"painted_metal_normal",
			"uri":"textures/painted_metal_normal.png"
		},
		{
			"mimeType":"image/png",
			"name":"painted_metal_basecolor",
			"uri":"textures/painted_metal_basecolor.png"
		},
		{
			"mimeType":"image/png",
			"name":"painted_metal_orm",
			"uri":"textures/painted_metal_orm.png"
		},
		{
			"mimeType":"image/png",
			"name":"wallpaper_normal",
			"uri":"textures/wallpaper_normal.png"
		},
		{
			"mimeType":"image/png",
			"name":"wallpaper_basecolor",
			"uri":"textures/wallpaper_basecolor.png"
		},
		{
			"mimeType":"image/png",
			"name":"wallpaper_orm",
			"uri":"textures/wallpaper_orm.png"
		},
		{
			"mimeType":"image/png",
			"name":"baseboard_normal",
			"uri":"textures/baseboard_normal.png"
		},
		{
			"mimeType":"image/png",
			"name":"baseboard_basecolor",
			"uri":"textures/baseboard_basecolor.png"
		},
		{
			"mimeType":"image/png",
			"name":"baseboard_orm",
			"uri":"textures/baseboard_orm.png"
		}
	],
	"accessors":[
		{
			"bufferView":0,
			"componentType":5126,
			"count":24,
			"max":[
				3.6600000858306885,
				0,
				10.979999542236328
			],
			"min":[
				1.2200000286102295,
				-0.08399999886751175,
				8.539999961853027
			],
			"type":"VEC3"
		},
		{
			"bufferView":1,
			"componentType":5126,
			"count":24,
			"type":"VEC3"
		},
		{
			"bufferView":2,
			"componentType":5126,
			"count":24,
			"type":"VEC2"
		},
		{
			"bufferView":3,
			"componentType":5126,
			"count":24,
			"type":"VEC2"
		},
		{
			"bufferView":4,
			"componentType":5126,
			"count":24,
			"type":"VEC4"
		},
		{
			"bufferView":5,
			"componentType":5123,
			"count":24,
			"normalized":true,
			"type":"VEC4"
		},
		{
			"bufferView":6,
			"componentType":5123,
			"count":36,
			"type":"SCALAR"
		},
		{
			"bufferView":7,
			"componentType":5126,
			"count":2218,
			"max":[
				3.6484999656677246,
				2.735999822616577,
				10.968500137329102
			],
			"min":[
				1.2314999103546143,
				2.7119998931884766,
				8.55150032043457
			],
			"type":"VEC3"
		},
		{
			"bufferView":8,
			"componentType":5126,
			"count":2218,
			"type":"VEC3"
		},
		{
			"bufferView":9,
			"componentType":5126,
			"count":2218,
			"type":"VEC2"
		},
		{
			"bufferView":10,
			"componentType":5126,
			"count":2218,
			"type":"VEC2"
		},
		{
			"bufferView":11,
			"componentType":5126,
			"count":2218,
			"type":"VEC4"
		},
		{
			"bufferView":12,
			"componentType":5123,
			"count":2218,
			"normalized":true,
			"type":"VEC4"
		},
		{
			"bufferView":13,
			"componentType":5123,
			"count":6636,
			"type":"SCALAR"
		},
		{
			"bufferView":14,
			"componentType":5126,
			"count":3422,
			"max":[
				3.6720001697540283,
				2.746000051498413,
				10.991999626159668
			],
			"min":[
				1.2080000638961792,
				2.7060000896453857,
				8.527999877929688
			],
			"type":"VEC3"
		},
		{
			"bufferView":15,
			"componentType":5126,
			"count":3422,
			"type":"VEC3"
		},
		{
			"bufferView":16,
			"componentType":5126,
			"count":3422,
			"type":"VEC2"
		},
		{
			"bufferView":17,
			"componentType":5126,
			"count":3422,
			"type":"VEC2"
		},
		{
			"bufferView":18,
			"componentType":5126,
			"count":3422,
			"type":"VEC4"
		},
		{
			"bufferView":19,
			"componentType":5123,
			"count":3422,
			"normalized":true,
			"type":"VEC4"
		},
		{
			"bufferView":20,
			"componentType":5123,
			"count":9120,
			"type":"SCALAR"
		},
		{
			"bufferView":21,
			"componentType":5126,
			"count":632,
			"max":[
				3.7400002479553223,
				2.7200000286102295,
				11.059999465942383
			],
			"min":[
				1.1399999856948853,
				0,
				8.539999008178711
			],
			"type":"VEC3"
		},
		{
			"bufferView":22,
			"componentType":5126,
			"count":632,
			"type":"VEC3"
		},
		{
			"bufferView":23,
			"componentType":5126,
			"count":632,
			"type":"VEC2"
		},
		{
			"bufferView":24,
			"componentType":5126,
			"count":632,
			"type":"VEC2"
		},
		{
			"bufferView":25,
			"componentType":5126,
			"count":632,
			"type":"VEC4"
		},
		{
			"bufferView":26,
			"componentType":5123,
			"count":632,
			"normalized":true,
			"type":"VEC4"
		},
		{
			"bufferView":27,
			"componentType":5123,
			"count":1692,
			"type":"SCALAR"
		},
		{
			"bufferView":28,
			"componentType":5126,
			"count":2542,
			"max":[
				3.764000177383423,
				0.10763231664896011,
				11.083999633789062
			],
			"min":[
				1.1160000562667847,
				0.0010000000474974513,
				8.539999008178711
			],
			"type":"VEC3"
		},
		{
			"bufferView":29,
			"componentType":5126,
			"count":2542,
			"type":"VEC3"
		},
		{
			"bufferView":30,
			"componentType":5126,
			"count":2542,
			"type":"VEC2"
		},
		{
			"bufferView":31,
			"componentType":5126,
			"count":2542,
			"type":"VEC2"
		},
		{
			"bufferView":32,
			"componentType":5126,
			"count":2542,
			"type":"VEC4"
		},
		{
			"bufferView":33,
			"componentType":5123,
			"count":2542,
			"normalized":true,
			"type":"VEC4"
		},
		{
			"bufferView":34,
			"componentType":5123,
			"count":7128,
			"type":"SCALAR"
		}
	],
	"bufferViews":[
		{
			"buffer":0,
			"byteLength":288,
			"byteOffset":0,
			"target":34962
		},
		{
			"buffer":0,
			"byteLength":288,
			"byteOffset":288,
			"target":34962
		},
		{
			"buffer":0,
			"byteLength":192,
			"byteOffset":576,
			"target":34962
		},
		{
			"buffer":0,
			"byteLength":192,
			"byteOffset":768,
			"target":34962
		},
		{
			"buffer":0,
			"byteLength":384,
			"byteOffset":960,
			"target":34962
		},
		{
			"buffer":0,
			"byteLength":192,
			"byteOffset":1344,
			"target":34962
		},
		{
			"buffer":0,
			"byteLength":72,
			"byteOffset":1536,
			"target":34963
		},
		{
			"buffer":0,
			"byteLength":26616,
			"byteOffset":1608,
			"target":34962
		},
		{
			"buffer":0,
			"byteLength":26616,
			"byteOffset":28224,
			"target":34962
		},
		{
			"buffer":0,
			"byteLength":17744,
			"byteOffset":54840,
			"target":34962
		},
		{
			"buffer":0,
			"byteLength":17744,
			"byteOffset":72584,
			"target":34962
		},
		{
			"buffer":0,
			"byteLength":35488,
			"byteOffset":90328,
			"target":34962
		},
		{
			"buffer":0,
			"byteLength":17744,
			"byteOffset":125816,
			"target":34962
		},
		{
			"buffer":0,
			"byteLength":13272,
			"byteOffset":143560,
			"target":34963
		},
		{
			"buffer":0,
			"byteLength":41064,
			"byteOffset":156832,
			"target":34962
		},
		{
			"buffer":0,
			"byteLength":41064,
			"byteOffset":197896,
			"target":34962
		},
		{
			"buffer":0,
			"byteLength":27376,
			"byteOffset":238960,
			"target":34962
		},
		{
			"buffer":0,
			"byteLength":27376,
			"byteOffset":266336,
			"target":34962
		},
		{
			"buffer":0,
			"byteLength":54752,
			"byteOffset":293712,
			"target":34962
		},
		{
			"buffer":0,
			"byteLength":27376,
			"byteOffset":348464,
			"target":34962
		},
		{
			"buffer":0,
			"byteLength":18240,
			"byteOffset":375840,
			"target":34963
		},
		{
			"buffer":0,
			"byteLength":7584,
			"byteOffset":394080,
			"target":34962
		},
		{
			"buffer":0,
			"byteLength":7584,
			"byteOffset":401664,
			"target":34962
		},
		{
			"buffer":0,
			"byteLength":5056,
			"byteOffset":409248,
			"target":34962
		},
		{
			"buffer":0,
			"byteLength":5056,
			"byteOffset":414304,
			"target":34962
		},
		{
			"buffer":0,
			"byteLength":10112,
			"byteOffset":419360,
			"target":34962
		},
		{
			"buffer":0,
			"byteLength":5056,
			"byteOffset":429472,
			"target":34962
		},
		{
			"buffer":0,
			"byteLength":3384,
			"byteOffset":434528,
			"target":34963
		},
		{
			"buffer":0,
			"byteLength":30504,
			"byteOffset":437912,
			"target":34962
		},
		{
			"buffer":0,
			"byteLength":30504,
			"byteOffset":468416,
			"target":34962
		},
		{
			"buffer":0,
			"byteLength":20336,
			"byteOffset":498920,
			"target":34962
		},
		{
			"buffer":0,
			"byteLength":20336,
			"byteOffset":519256,
			"target":34962
		},
		{
			"buffer":0,
			"byteLength":40672,
			"byteOffset":539592,
			"target":34962
		},
		{
			"buffer":0,
			"byteLength":20336,
			"byteOffset":580264,
			"target":34962
		},
		{
			"buffer":0,
			"byteLength":14256,
			"byteOffset":600600,
			"target":34963
		}
	],
	"samplers":[
		{
			"magFilter":9729,
			"minFilter":9987
		}
	],
	"buffers":[
		{
			"byteLength":614856,
			"uri":"short_exit.bin"
		}
	]
}
