{
	"asset":{
		"generator":"Khronos glTF Blender I/O v5.2.40",
		"version":"2.0"
	},
	"scene":0,
	"scenes":[
		{
			"name":"Scene",
			"nodes":[
				0
			]
		}
	],
	"nodes":[
		{
			"mesh":0,
			"name":"short_west_return"
		}
	],
	"materials":[
		{
			"doubleSided":true,
			"name":"carpet",
			"normalTexture":{
				"index":0,
				"scale":0.800000011920929
			},
			"pbrMetallicRoughness":{
				"baseColorTexture":{
					"index":1
				},
				"metallicRoughnessTexture":{
					"index":2
				}
			}
		},
		{
			"doubleSided":true,
			"name":"ceiling",
			"normalTexture":{
				"index":3,
				"scale":0.800000011920929
			},
			"pbrMetallicRoughness":{
				"baseColorTexture":{
					"index":4
				},
				"metallicRoughnessTexture":{
					"index":5
				}
			}
		},
		{
			"doubleSided":true,
			"name":"painted_metal",
			"normalTexture":{
				"index":6,
				"scale":0.800000011920929
			},
			"pbrMetallicRoughness":{
				"baseColorTexture":{
					"index":7
				},
				"metallicRoughnessTexture":{
					"index":8
				}
			}
		},
		{
			"doubleSided":true,
			"name":"wallpaper",
			"normalTexture":{
				"index":9,
				"scale":0.800000011920929
			},
			"pbrMetallicRoughness":{
				"baseColorTexture":{
					"index":10
				},
				"metallicRoughnessTexture":{
					"index":11
				}
			}
		},
		{
			"doubleSided":true,
			"name":"baseboard",
			"normalTexture":{
				"index":12,
				"scale":0.800000011920929
			},
			"pbrMetallicRoughness":{
				"baseColorTexture":{
					"index":13
				},
				"metallicRoughnessTexture":{
					"index":14
				}
			}
		}
	],
	"meshes":[
		{
			"name":"west_return_Floor_editable_mesh.001",
			"primitives":[
				{
					"attributes":{
						"POSITION":0,
						"NORMAL":1,
						"TEXCOORD_0":2,
						"TEXCOORD_1":3,
						"TANGENT":4,
						"COLOR_0":5
					},
					"indices":6,
					"material":0
				},
				{
					"attributes":{
						"POSITION":7,
						"NORMAL":8,
						"TEXCOORD_0":9,
						"TEXCOORD_1":10,
						"TANGENT":11,
						"COLOR_0":12
					},
					"indices":13,
					"material":1
				},
				{
					"attributes":{
						"POSITION":14,
						"NORMAL":15,
						"TEXCOORD_0":16,
						"TEXCOORD_1":17,
						"TANGENT":18,
						"COLOR_0":19
					},
					"indices":20,
					"material":2
				},
				{
					"attributes":{
						"POSITION":21,
						"NORMAL":22,
						"TEXCOORD_0":23,
						"TEXCOORD_1":24,
						"TANGENT":25,
						"COLOR_0":26
					},
					"indices":27,
					"material":3
				},
				{
					"attributes":{
						"POSITION":28,
						"NORMAL":29,
						"TEXCOORD_0":30,
						"TEXCOORD_1":31,
						"TANGENT":32,
						"COLOR_0":33
					},
					"indices":34,
					"material":4
				}
			]
		}
	],
	"textures":[
		{
			"sampler":0,
			"source":0
		},
		{
			"sampler":0,
			"source":1
		},
		{
			"sampler":0,
			"source":2
		},
		{
			"sampler":0,
			"source":3
		},
		{
			"sampler":0,
			"source":4
		},
		{
			"sampler":0,
			"source":5
		},
		{
			"sampler":0,
			"source":6
		},
		{
			"sampler":0,
			"source":7
		},
		{
			"sampler":0,
			"source":8
		},
		{
			"sampler":0,
			"source":9
		},
		{
			"sampler":0,
			"source":10
		},
		{
			"sampler":0,
			"source":11
		},
		{
			"sampler":0,
			"source":12
		},
		{
			"sampler":0,
			"source":13
		},
		{
			"sampler":0,
			"source":14
		}
	],
	"images":[
		{
			"mimeType":"image/png",
			"name":"carpet_normal",
			"uri":"textures/carpet_normal.png"
		},
		{
			"mimeType":"image/png",
			"name":"carpet_basecolor",
			"uri":"textures/carpet_basecolor.png"
		},
		{
			"mimeType":"image/png",
			"name":"carpet_orm",
			"uri":"textures/carpet_orm.png"
		},
		{
			"mimeType":"image/png",
			"name":"ceiling_normal",
			"uri":"textures/ceiling_normal.png"
		},
		{
			"mimeType":"image/png",
			"name":"ceiling_basecolor",
			"uri":"textures/ceiling_basecolor.png"
		},
		{
			"mimeType":"image/png",
			"name":"ceiling_orm",
			"uri":"textures/ceiling_orm.png"
		},
		{
			"mimeType":"image/png",
			"name":"painted_metal_normal",
			"uri":"textures/painted_metal_normal.png"
		},
		{
			"mimeType":"image/png",
			"name":"painted_metal_basecolor",
			"uri":"textures/painted_metal_basecolor.png"
		},
		{
			"mimeType":"image/png",
			"name":"painted_metal_orm",
			"uri":"textures/painted_metal_orm.png"
		},
		{
			"mimeType":"image/png",
			"name":"wallpaper_normal",
			"uri":"textures/wallpaper_normal.png"
		},
		{
			"mimeType":"image/png",
			"name":"wallpaper_basecolor",
			"uri":"textures/wallpaper_basecolor.png"
		},
		{
			"mimeType":"image/png",
			"name":"wallpaper_orm",
			"uri":"textures/wallpaper_orm.png"
		},
		{
			"mimeType":"image/png",
			"name":"baseboard_normal",
			"uri":"textures/baseboard_normal.png"
		},
		{
			"mimeType":"image/png",
			"name":"baseboard_basecolor",
			"uri":"textures/baseboard_basecolor.png"
		},
		{
			"mimeType":"image/png",
			"name":"baseboard_orm",
			"uri":"textures/baseboard_orm.png"
		}
	],
	"accessors":[
		{
			"bufferView":0,
			"componentType":5126,
			"count":24,
			"max":[
				-6.099999904632568,
				0,
				-9.760000228881836
			],
			"min":[
				-8.539999961853027,
				-0.08399999886751175,
				-18.299999237060547
			],
			"type":"VEC3"
		},
		{
			"bufferView":1,
			"componentType":5126,
			"count":24,
			"type":"VEC3"
		},
		{
			"bufferView":2,
			"componentType":5126,
			"count":24,
			"type":"VEC2"
		},
		{
			"bufferView":3,
			"componentType":5126,
			"count":24,
			"type":"VEC2"
		},
		{
			"bufferView":4,
			"componentType":5126,
			"count":24,
			"type":"VEC4"
		},
		{
			"bufferView":5,
			"componentType":5123,
			"count":24,
			"normalized":true,
			"type":"VEC4"
		},
		{
			"bufferView":6,
			"componentType":5123,
			"count":36,
			"type":"SCALAR"
		},
		{
			"bufferView":7,
			"componentType":5126,
			"count":8241,
			"max":[
				-6.111499786376953,
				2.735999822616577,
				-9.771499633789062
			],
			"min":[
				-8.528499603271484,
				2.7119998931884766,
				-18.288501739501953
			],
			"type":"VEC3"
		},
		{
			"bufferView":8,
			"componentType":5126,
			"count":8241,
			"type":"VEC3"
		},
		{
			"bufferView":9,
			"componentType":5126,
			"count":8241,
			"type":"VEC2"
		},
		{
			"bufferView":10,
			"componentType":5126,
			"count":8241,
			"type":"VEC2"
		},
		{
			"bufferView":11,
			"componentType":5126,
			"count":8241,
			"type":"VEC4"
		},
		{
			"bufferView":12,
			"componentType":5123,
			"count":8241,
			"normalized":true,
			"type":"VEC4"
		},
		{
			"bufferView":13,
			"componentType":5123,
			"count":24648,
			"type":"SCALAR"
		},
		{
			"bufferView":14,
			"componentType":5126,
			"count":7705,
			"max":[
				-6.08799934387207,
				2.746000051498413,
				-9.748000144958496
			],
			"min":[
				-8.552000045776367,
				2.7060000896453857,
				-18.31199836730957
			],
			"type":"VEC3"
		},
		{
			"bufferView":15,
			"componentType":5126,
			"count":7705,
			"type":"VEC3"
		},
		{
			"bufferView":16,
			"componentType":5126,
			"count":7705,
			"type":"VEC2"
		},
		{
			"bufferView":17,
			"componentType":5126,
			"count":7705,
			"type":"VEC2"
		},
		{
			"bufferView":18,
			"componentType":5126,
			"count":7705,
			"type":"VEC4"
		},
		{
			"bufferView":19,
			"componentType":5123,
			"count":7705,
			"normalized":true,
			"type":"VEC4"
		},
		{
			"bufferView":20,
			"componentType":5123,
			"count":20520,
			"type":"SCALAR"
		},
		{
			"bufferView":21,
			"componentType":5126,
			"count":844,
			"max":[
				-6.0199995040893555,
				2.7200000286102295,
				-9.680000305175781
			],
			"min":[
				-8.619999885559082,
				0,
				-18.30000114440918
			],
			"type":"VEC3"
		},
		{
			"bufferView":22,
			"componentType":5126,
			"count":844,
			"type":"VEC3"
		},
		{
			"bufferView":23,
			"componentType":5126,
			"count":844,
			"type":"VEC2"
		},
		{
			"bufferView":24,
			"componentType":5126,
			"count":844,
			"type":"VEC2"
		},
		{
			"bufferView":25,
			"componentType":5126,
			"count":844,
			"type":"VEC4"
		},
		{
			"bufferView":26,
			"componentType":5123,
			"count":844,
			"normalized":true,
			"type":"VEC4"
		},
		{
			"bufferView":27,
			"componentType":5123,
			"count":2256,
			"type":"SCALAR"
		},
		{
			"bufferView":28,
			"componentType":5126,
			"count":2553,
			"max":[
				-5.995999813079834,
				0.10763231664896011,
				-9.656000137329102
			],
			"min":[
				-8.644000053405762,
				0.0010000000474974513,
				-18.30000114440918
			],
			"type":"VEC3"
		},
		{
			"bufferView":29,
			"componentType":5126,
			"count":2553,
			"type":"VEC3"
		},
		{
			"bufferView":30,
			"componentType":5126,
			"count":2553,
			"type":"VEC2"
		},
		{
			"bufferView":31,
			"componentType":5126,
			"count":2553,
			"type":"VEC2"
		},
		{
			"bufferView":32,
			"componentType":5126,
			"count":2553,
			"type":"VEC4"
		},
		{
			"bufferView":33,
			"componentType":5123,
			"count":2553,
			"normalized":true,
			"type":"VEC4"
		},
		{
			"bufferView":34,
			"componentType":5123,
			"count":7128,
			"type":"SCALAR"
		}
	],
	"bufferViews":[
		{
			"buffer":0,
			"byteLength":288,
			"byteOffset":0,
			"target":34962
		},
		{
			"buffer":0,
			"byteLength":288,
			"byteOffset":288,
			"target":34962
		},
		{
			"buffer":0,
			"byteLength":192,
			"byteOffset":576,
			"target":34962
		},
		{
			"buffer":0,
			"byteLength":192,
			"byteOffset":768,
			"target":34962
		},
		{
			"buffer":0,
			"byteLength":384,
			"byteOffset":960,
			"target":34962
		},
		{
			"buffer":0,
			"byteLength":192,
			"byteOffset":1344,
			"target":34962
		},
		{
			"buffer":0,
			"byteLength":72,
			"byteOffset":1536,
			"target":34963
		},
		{
			"buffer":0,
			"byteLength":98892,
			"byteOffset":1608,
			"target":34962
		},
		{
			"buffer":0,
			"byteLength":98892,
			"byteOffset":100500,
			"target":34962
		},
		{
			"buffer":0,
			"byteLength":65928,
			"byteOffset":199392,
			"target":34962
		},
		{
			"buffer":0,
			"byteLength":65928,
			"byteOffset":265320,
			"target":34962
		},
		{
			"buffer":0,
			"byteLength":131856,
			"byteOffset":331248,
			"target":34962
		},
		{
			"buffer":0,
			"byteLength":65928,
			"byteOffset":463104,
			"target":34962
		},
		{
			"buffer":0,
			"byteLength":49296,
			"byteOffset":529032,
			"target":34963
		},
		{
			"buffer":0,
			"byteLength":92460,
			"byteOffset":578328,
			"target":34962
		},
		{
			"buffer":0,
			"byteLength":92460,
			"byteOffset":670788,
			"target":34962
		},
		{
			"buffer":0,
			"byteLength":61640,
			"byteOffset":763248,
			"target":34962
		},
		{
			"buffer":0,
			"byteLength":61640,
			"byteOffset":824888,
			"target":34962
		},
		{
			"buffer":0,
			"byteLength":123280,
			"byteOffset":886528,
			"target":34962
		},
		{
			"buffer":0,
			"byteLength":61640,
			"byteOffset":1009808,
			"target":34962
		},
		{
			"buffer":0,
			"byteLength":41040,
			"byteOffset":1071448,
			"target":34963
		},
		{
			"buffer":0,
			"byteLength":10128,
			"byteOffset":1112488,
			"target":34962
		},
		{
			"buffer":0,
			"byteLength":10128,
			"byteOffset":1122616,
			"target":34962
		},
		{
			"buffer":0,
			"byteLength":6752,
			"byteOffset":1132744,
			"target":34962
		},
		{
			"buffer":0,
			"byteLength":6752,
			"byteOffset":1139496,
			"target":34962
		},
		{
			"buffer":0,
			"byteLength":13504,
			"byteOffset":1146248,
			"target":34962
		},
		{
			"buffer":0,
			"byteLength":6752,
			"byteOffset":1159752,
			"target":34962
		},
		{
			"buffer":0,
			"byteLength":4512,
			"byteOffset":1166504,
			"target":34963
		},
		{
			"buffer":0,
			"byteLength":30636,
			"byteOffset":1171016,
			"target":34962
		},
		{
			"buffer":0,
			"byteLength":30636,
			"byteOffset":1201652,
			"target":34962
		},
		{
			"buffer":0,
			"byteLength":20424,
			"byteOffset":1232288,
			"target":34962
		},
		{
			"buffer":0,
			"byteLength":20424,
			"byteOffset":1252712,
			"target":34962
		},
		{
			"buffer":0,
			"byteLength":40848,
			"byteOffset":1273136,
			"target":34962
		},
		{
			"buffer":0,
			"byteLength":20424,
			"byteOffset":1313984,
			"target":34962
		},
		{
			"buffer":0,
			"byteLength":14256,
			"byteOffset":1334408,
			"target":34963
		}
	],
	"samplers":[
		{
			"magFilter":9729,
			"minFilter":9987
		}
	],
	"buffers":[
		{
			"byteLength":1348664,
			"uri":"short_west_return.bin"
		}
	]
}
