{
	"asset":{
		"generator":"Khronos glTF Blender I/O v5.2.40",
		"version":"2.0"
	},
	"extensionsUsed":[
		"KHR_materials_emissive_strength"
	],
	"scene":0,
	"scenes":[
		{
			"name":"Scene",
			"nodes":[
				0
			]
		}
	],
	"nodes":[
		{
			"mesh":0,
			"name":"short_office_core"
		}
	],
	"materials":[
		{
			"doubleSided":true,
			"name":"carpet",
			"normalTexture":{
				"index":0,
				"scale":0.800000011920929
			},
			"pbrMetallicRoughness":{
				"baseColorTexture":{
					"index":1
				},
				"metallicRoughnessTexture":{
					"index":2
				}
			}
		},
		{
			"doubleSided":true,
			"name":"wallpaper",
			"normalTexture":{
				"index":3,
				"scale":0.800000011920929
			},
			"pbrMetallicRoughness":{
				"baseColorTexture":{
					"index":4
				},
				"metallicRoughnessTexture":{
					"index":5
				}
			}
		},
		{
			"doubleSided":true,
			"name":"baseboard",
			"normalTexture":{
				"index":6,
				"scale":0.800000011920929
			},
			"pbrMetallicRoughness":{
				"baseColorTexture":{
					"index":7
				},
				"metallicRoughnessTexture":{
					"index":8
				}
			}
		},
		{
			"doubleSided":true,
			"name":"painted_metal",
			"normalTexture":{
				"index":9,
				"scale":0.800000011920929
			},
			"pbrMetallicRoughness":{
				"baseColorTexture":{
					"index":10
				},
				"metallicRoughnessTexture":{
					"index":11
				}
			}
		},
		{
			"doubleSided":true,
			"name":"ceiling",
			"normalTexture":{
				"index":12,
				"scale":0.800000011920929
			},
			"pbrMetallicRoughness":{
				"baseColorTexture":{
					"index":13
				},
				"metallicRoughnessTexture":{
					"index":14
				}
			}
		},
		{
			"doubleSided":true,
			"emissiveFactor":[
				1,
				1,
				1
			],
			"emissiveTexture":{
				"index":15
			},
			"extensions":{
				"KHR_materials_emissive_strength":{
					"emissiveStrength":2.4000000953674316
				}
			},
			"name":"fixture_detail",
			"normalTexture":{
				"index":16,
				"scale":0.800000011920929
			},
			"pbrMetallicRoughness":{
				"baseColorTexture":{
					"index":17
				},
				"metallicRoughnessTexture":{
					"index":18
				}
			}
		}
	],
	"meshes":[
		{
			"name":"M4_ContinuousCarpet_editable_mesh.001",
			"primitives":[
				{
					"attributes":{
						"POSITION":0,
						"NORMAL":1,
						"TEXCOORD_0":2,
						"TEXCOORD_1":3,
						"TANGENT":4,
						"COLOR_0":5
					},
					"indices":6,
					"material":0
				},
				{
					"attributes":{
						"POSITION":7,
						"NORMAL":8,
						"TEXCOORD_0":9,
						"TEXCOORD_1":10,
						"TANGENT":11,
						"COLOR_0":12
					},
					"indices":13,
					"material":1
				},
				{
					"attributes":{
						"POSITION":14,
						"NORMAL":15,
						"TEXCOORD_0":16,
						"TEXCOORD_1":17,
						"TANGENT":18,
						"COLOR_0":19
					},
					"indices":20,
					"material":2
				},
				{
					"attributes":{
						"POSITION":21,
						"NORMAL":22,
						"TEXCOORD_0":23,
						"TEXCOORD_1":24,
						"TANGENT":25,
						"COLOR_0":26
					},
					"indices":27,
					"material":3
				},
				{
					"attributes":{
						"POSITION":28,
						"NORMAL":29,
						"TEXCOORD_0":30,
						"TEXCOORD_1":31,
						"TANGENT":32,
						"COLOR_0":33
					},
					"indices":34,
					"material":4
				},
				{
					"attributes":{
						"POSITION":35,
						"NORMAL":36,
						"TEXCOORD_0":37,
						"TEXCOORD_1":38,
						"TANGENT":39,
						"COLOR_0":40
					},
					"indices":41,
					"material":5
				}
			]
		}
	],
	"textures":[
		{
			"sampler":0,
			"source":0
		},
		{
			"sampler":0,
			"source":1
		},
		{
			"sampler":0,
			"source":2
		},
		{
			"sampler":0,
			"source":3
		},
		{
			"sampler":0,
			"source":4
		},
		{
			"sampler":0,
			"source":5
		},
		{
			"sampler":0,
			"source":6
		},
		{
			"sampler":0,
			"source":7
		},
		{
			"sampler":0,
			"source":8
		},
		{
			"sampler":0,
			"source":9
		},
		{
			"sampler":0,
			"source":10
		},
		{
			"sampler":0,
			"source":11
		},
		{
			"sampler":0,
			"source":12
		},
		{
			"sampler":0,
			"source":13
		},
		{
			"sampler":0,
			"source":14
		},
		{
			"sampler":0,
			"source":15
		},
		{
			"sampler":0,
			"source":16
		},
		{
			"sampler":0,
			"source":17
		},
		{
			"sampler":0,
			"source":18
		}
	],
	"images":[
		{
			"mimeType":"image/png",
			"name":"carpet_normal",
			"uri":"textures/carpet_normal.png"
		},
		{
			"mimeType":"image/png",
			"name":"carpet_basecolor",
			"uri":"textures/carpet_basecolor.png"
		},
		{
			"mimeType":"image/png",
			"name":"carpet_orm",
			"uri":"textures/carpet_orm.png"
		},
		{
			"mimeType":"image/png",
			"name":"wallpaper_normal",
			"uri":"textures/wallpaper_normal.png"
		},
		{
			"mimeType":"image/png",
			"name":"wallpaper_basecolor",
			"uri":"textures/wallpaper_basecolor.png"
		},
		{
			"mimeType":"image/png",
			"name":"wallpaper_orm",
			"uri":"textures/wallpaper_orm.png"
		},
		{
			"mimeType":"image/png",
			"name":"baseboard_normal",
			"uri":"textures/baseboard_normal.png"
		},
		{
			"mimeType":"image/png",
			"name":"baseboard_basecolor",
			"uri":"textures/baseboard_basecolor.png"
		},
		{
			"mimeType":"image/png",
			"name":"baseboard_orm",
			"uri":"textures/baseboard_orm.png"
		},
		{
			"mimeType":"image/png",
			"name":"painted_metal_normal",
			"uri":"textures/painted_metal_normal.png"
		},
		{
			"mimeType":"image/png",
			"name":"painted_metal_basecolor",
			"uri":"textures/painted_metal_basecolor.png"
		},
		{
			"mimeType":"image/png",
			"name":"painted_metal_orm",
			"uri":"textures/painted_metal_orm.png"
		},
		{
			"mimeType":"image/png",
			"name":"ceiling_normal",
			"uri":"textures/ceiling_normal.png"
		},
		{
			"mimeType":"image/png",
			"name":"ceiling_basecolor",
			"uri":"textures/ceiling_basecolor.png"
		},
		{
			"mimeType":"image/png",
			"name":"ceiling_orm",
			"uri":"textures/ceiling_orm.png"
		},
		{
			"mimeType":"image/png",
			"name":"fixture_detail_emission",
			"uri":"textures/fixture_detail_emission.png"
		},
		{
			"mimeType":"image/png",
			"name":"fixture_detail_normal",
			"uri":"textures/fixture_detail_normal.png"
		},
		{
			"mimeType":"image/png",
			"name":"fixture_detail_basecolor",
			"uri":"textures/fixture_detail_basecolor.png"
		},
		{
			"mimeType":"image/png",
			"name":"fixture_detail_orm",
			"uri":"textures/fixture_detail_orm.png"
		}
	],
	"accessors":[
		{
			"bufferView":0,
			"componentType":5126,
			"count":96,
			"max":[
				9.760000228881836,
				0,
				2.440000057220459
			],
			"min":[
				-6.099999904632568,
				-0.08399999886751175,
				-18.299999237060547
			],
			"type":"VEC3"
		},
		{
			"bufferView":1,
			"componentType":5126,
			"count":96,
			"type":"VEC3"
		},
		{
			"bufferView":2,
			"componentType":5126,
			"count":96,
			"type":"VEC2"
		},
		{
			"bufferView":3,
			"componentType":5126,
			"count":96,
			"type":"VEC2"
		},
		{
			"bufferView":4,
			"componentType":5126,
			"count":96,
			"type":"VEC4"
		},
		{
			"bufferView":5,
			"componentType":5123,
			"count":96,
			"normalized":true,
			"type":"VEC4"
		},
		{
			"bufferView":6,
			"componentType":5123,
			"count":144,
			"type":"SCALAR"
		},
		{
			"bufferView":7,
			"componentType":5126,
			"count":4829,
			"max":[
				9.84000015258789,
				2.7200000286102295,
				2.440000057220459
			],
			"min":[
				-6.179999828338623,
				0,
				-18.30000114440918
			],
			"type":"VEC3"
		},
		{
			"bufferView":8,
			"componentType":5126,
			"count":4829,
			"type":"VEC3"
		},
		{
			"bufferView":9,
			"componentType":5126,
			"count":4829,
			"type":"VEC2"
		},
		{
			"bufferView":10,
			"componentType":5126,
			"count":4829,
			"type":"VEC2"
		},
		{
			"bufferView":11,
			"componentType":5126,
			"count":4829,
			"type":"VEC4"
		},
		{
			"bufferView":12,
			"componentType":5123,
			"count":4829,
			"normalized":true,
			"type":"VEC4"
		},
		{
			"bufferView":13,
			"componentType":5123,
			"count":12972,
			"type":"SCALAR"
		},
		{
			"bufferView":14,
			"componentType":5126,
			"count":18820,
			"max":[
				9.760000228881836,
				0.1082354485988617,
				2.440000057220459
			],
			"min":[
				-6.203999996185303,
				0.0008500000694766641,
				-18.30000114440918
			],
			"type":"VEC3"
		},
		{
			"bufferView":15,
			"componentType":5126,
			"count":18820,
			"type":"VEC3"
		},
		{
			"bufferView":16,
			"componentType":5126,
			"count":18820,
			"type":"VEC2"
		},
		{
			"bufferView":17,
			"componentType":5126,
			"count":18820,
			"type":"VEC2"
		},
		{
			"bufferView":18,
			"componentType":5126,
			"count":18820,
			"type":"VEC4"
		},
		{
			"bufferView":19,
			"componentType":5123,
			"count":18820,
			"normalized":true,
			"type":"VEC4"
		},
		{
			"bufferView":20,
			"componentType":5123,
			"count":51786,
			"type":"SCALAR"
		},
		{
			"bufferView":21,
			"componentType":5126,
			"count":30548,
			"max":[
				9.772000312805176,
				2.746000051498413,
				2.452000141143799
			],
			"min":[
				-6.111999988555908,
				0,
				-18.31199836730957
			],
			"type":"VEC3"
		},
		{
			"bufferView":22,
			"componentType":5126,
			"count":30548,
			"type":"VEC3"
		},
		{
			"bufferView":23,
			"componentType":5126,
			"count":30548,
			"type":"VEC2"
		},
		{
			"bufferView":24,
			"componentType":5126,
			"count":30548,
			"type":"VEC2"
		},
		{
			"bufferView":25,
			"componentType":5126,
			"count":30548,
			"type":"VEC4"
		},
		{
			"bufferView":26,
			"componentType":5123,
			"count":30548,
			"normalized":true,
			"type":"VEC4"
		},
		{
			"bufferView":27,
			"componentType":5123,
			"count":80844,
			"type":"SCALAR"
		},
		{
			"bufferView":28,
			"componentType":5126,
			"count":80484,
			"max":[
				9.748499870300293,
				2.740194797515869,
				2.428499937057495
			],
			"min":[
				-6.088500022888184,
				0.0028603672981262207,
				-18.288501739501953
			],
			"type":"VEC3"
		},
		{
			"bufferView":29,
			"componentType":5126,
			"count":80484,
			"type":"VEC3"
		},
		{
			"bufferView":30,
			"componentType":5126,
			"count":80484,
			"type":"VEC2"
		},
		{
			"bufferView":31,
			"componentType":5126,
			"count":80484,
			"type":"VEC2"
		},
		{
			"bufferView":32,
			"componentType":5126,
			"count":80484,
			"type":"VEC4"
		},
		{
			"bufferView":33,
			"componentType":5123,
			"count":80484,
			"normalized":true,
			"type":"VEC4"
		},
		{
			"bufferView":34,
			"componentType":5125,
			"count":248376,
			"type":"SCALAR"
		},
		{
			"bufferView":35,
			"componentType":5126,
			"count":1068,
			"max":[
				-5.988500118255615,
				0.8575000166893005,
				-10.509119033813477
			],
			"min":[
				-6.043499946594238,
				0.5825000405311584,
				-11.09088134765625
			],
			"type":"VEC3"
		},
		{
			"bufferView":36,
			"componentType":5126,
			"count":1068,
			"type":"VEC3"
		},
		{
			"bufferView":37,
			"componentType":5126,
			"count":1068,
			"type":"VEC2"
		},
		{
			"bufferView":38,
			"componentType":5126,
			"count":1068,
			"type":"VEC2"
		},
		{
			"bufferView":39,
			"componentType":5126,
			"count":1068,
			"type":"VEC4"
		},
		{
			"bufferView":40,
			"componentType":5123,
			"count":1068,
			"normalized":true,
			"type":"VEC4"
		},
		{
			"bufferView":41,
			"componentType":5123,
			"count":2652,
			"type":"SCALAR"
		}
	],
	"bufferViews":[
		{
			"buffer":0,
			"byteLength":1152,
			"byteOffset":0,
			"target":34962
		},
		{
			"buffer":0,
			"byteLength":1152,
			"byteOffset":1152,
			"target":34962
		},
		{
			"buffer":0,
			"byteLength":768,
			"byteOffset":2304,
			"target":34962
		},
		{
			"buffer":0,
			"byteLength":768,
			"byteOffset":3072,
			"target":34962
		},
		{
			"buffer":0,
			"byteLength":1536,
			"byteOffset":3840,
			"target":34962
		},
		{
			"buffer":0,
			"byteLength":768,
			"byteOffset":5376,
			"target":34962
		},
		{
			"buffer":0,
			"byteLength":288,
			"byteOffset":6144,
			"target":34963
		},
		{
			"buffer":0,
			"byteLength":57948,
			"byteOffset":6432,
			"target":34962
		},
		{
			"buffer":0,
			"byteLength":57948,
			"byteOffset":64380,
			"target":34962
		},
		{
			"buffer":0,
			"byteLength":38632,
			"byteOffset":122328,
			"target":34962
		},
		{
			"buffer":0,
			"byteLength":38632,
			"byteOffset":160960,
			"target":34962
		},
		{
			"buffer":0,
			"byteLength":77264,
			"byteOffset":199592,
			"target":34962
		},
		{
			"buffer":0,
			"byteLength":38632,
			"byteOffset":276856,
			"target":34962
		},
		{
			"buffer":0,
			"byteLength":25944,
			"byteOffset":315488,
			"target":34963
		},
		{
			"buffer":0,
			"byteLength":225840,
			"byteOffset":341432,
			"target":34962
		},
		{
			"buffer":0,
			"byteLength":225840,
			"byteOffset":567272,
			"target":34962
		},
		{
			"buffer":0,
			"byteLength":150560,
			"byteOffset":793112,
			"target":34962
		},
		{
			"buffer":0,
			"byteLength":150560,
			"byteOffset":943672,
			"target":34962
		},
		{
			"buffer":0,
			"byteLength":301120,
			"byteOffset":1094232,
			"target":34962
		},
		{
			"buffer":0,
			"byteLength":150560,
			"byteOffset":1395352,
			"target":34962
		},
		{
			"buffer":0,
			"byteLength":103572,
			"byteOffset":1545912,
			"target":34963
		},
		{
			"buffer":0,
			"byteLength":366576,
			"byteOffset":1649484,
			"target":34962
		},
		{
			"buffer":0,
			"byteLength":366576,
			"byteOffset":2016060,
			"target":34962
		},
		{
			"buffer":0,
			"byteLength":244384,
			"byteOffset":2382636,
			"target":34962
		},
		{
			"buffer":0,
			"byteLength":244384,
			"byteOffset":2627020,
			"target":34962
		},
		{
			"buffer":0,
			"byteLength":488768,
			"byteOffset":2871404,
			"target":34962
		},
		{
			"buffer":0,
			"byteLength":244384,
			"byteOffset":3360172,
			"target":34962
		},
		{
			"buffer":0,
			"byteLength":161688,
			"byteOffset":3604556,
			"target":34963
		},
		{
			"buffer":0,
			"byteLength":965808,
			"byteOffset":3766244,
			"target":34962
		},
		{
			"buffer":0,
			"byteLength":965808,
			"byteOffset":4732052,
			"target":34962
		},
		{
			"buffer":0,
			"byteLength":643872,
			"byteOffset":5697860,
			"target":34962
		},
		{
			"buffer":0,
			"byteLength":643872,
			"byteOffset":6341732,
			"target":34962
		},
		{
			"buffer":0,
			"byteLength":1287744,
			"byteOffset":6985604,
			"target":34962
		},
		{
			"buffer":0,
			"byteLength":643872,
			"byteOffset":8273348,
			"target":34962
		},
		{
			"buffer":0,
			"byteLength":993504,
			"byteOffset":8917220,
			"target":34963
		},
		{
			"buffer":0,
			"byteLength":12816,
			"byteOffset":9910724,
			"target":34962
		},
		{
			"buffer":0,
			"byteLength":12816,
			"byteOffset":9923540,
			"target":34962
		},
		{
			"buffer":0,
			"byteLength":8544,
			"byteOffset":9936356,
			"target":34962
		},
		{
			"buffer":0,
			"byteLength":8544,
			"byteOffset":9944900,
			"target":34962
		},
		{
			"buffer":0,
			"byteLength":17088,
			"byteOffset":9953444,
			"target":34962
		},
		{
			"buffer":0,
			"byteLength":8544,
			"byteOffset":9970532,
			"target":34962
		},
		{
			"buffer":0,
			"byteLength":5304,
			"byteOffset":9979076,
			"target":34963
		}
	],
	"samplers":[
		{
			"magFilter":9729,
			"minFilter":9987
		}
	],
	"buffers":[
		{
			"byteLength":9984380,
			"uri":"short_office_core.bin"
		}
	]
}
