{
	"asset":{
		"generator":"Khronos glTF Blender I/O v5.2.40",
		"version":"2.0"
	},
	"scene":0,
	"scenes":[
		{
			"name":"Scene",
			"nodes":[
				0
			]
		}
	],
	"nodes":[
		{
			"mesh":0,
			"name":"short_archive"
		}
	],
	"materials":[
		{
			"doubleSided":true,
			"name":"carpet",
			"normalTexture":{
				"index":0,
				"scale":0.800000011920929
			},
			"pbrMetallicRoughness":{
				"baseColorTexture":{
					"index":1
				},
				"metallicRoughnessTexture":{
					"index":2
				}
			}
		},
		{
			"doubleSided":true,
			"name":"ceiling",
			"normalTexture":{
				"index":3,
				"scale":0.800000011920929
			},
			"pbrMetallicRoughness":{
				"baseColorTexture":{
					"index":4
				},
				"metallicRoughnessTexture":{
					"index":5
				}
			}
		},
		{
			"doubleSided":true,
			"name":"painted_metal",
			"normalTexture":{
				"index":6,
				"scale":0.800000011920929
			},
			"pbrMetallicRoughness":{
				"baseColorTexture":{
					"index":7
				},
				"metallicRoughnessTexture":{
					"index":8
				}
			}
		},
		{
			"doubleSided":true,
			"name":"wallpaper",
			"normalTexture":{
				"index":9,
				"scale":0.800000011920929
			},
			"pbrMetallicRoughness":{
				"baseColorTexture":{
					"index":10
				},
				"metallicRoughnessTexture":{
					"index":11
				}
			}
		},
		{
			"doubleSided":true,
			"name":"baseboard",
			"normalTexture":{
				"index":12,
				"scale":0.800000011920929
			},
			"pbrMetallicRoughness":{
				"baseColorTexture":{
					"index":13
				},
				"metallicRoughnessTexture":{
					"index":14
				}
			}
		}
	],
	"meshes":[
		{
			"name":"archive_Floor_editable_mesh.001",
			"primitives":[
				{
					"attributes":{
						"POSITION":0,
						"NORMAL":1,
						"TEXCOORD_0":2,
						"TEXCOORD_1":3,
						"TANGENT":4,
						"COLOR_0":5
					},
					"indices":6,
					"material":0
				},
				{
					"attributes":{
						"POSITION":7,
						"NORMAL":8,
						"TEXCOORD_0":9,
						"TEXCOORD_1":10,
						"TANGENT":11,
						"COLOR_0":12
					},
					"indices":13,
					"material":1
				},
				{
					"attributes":{
						"POSITION":14,
						"NORMAL":15,
						"TEXCOORD_0":16,
						"TEXCOORD_1":17,
						"TANGENT":18,
						"COLOR_0":19
					},
					"indices":20,
					"material":2
				},
				{
					"attributes":{
						"POSITION":21,
						"NORMAL":22,
						"TEXCOORD_0":23,
						"TEXCOORD_1":24,
						"TANGENT":25,
						"COLOR_0":26
					},
					"indices":27,
					"material":3
				},
				{
					"attributes":{
						"POSITION":28,
						"NORMAL":29,
						"TEXCOORD_0":30,
						"TEXCOORD_1":31,
						"TANGENT":32,
						"COLOR_0":33
					},
					"indices":34,
					"material":4
				}
			]
		}
	],
	"textures":[
		{
			"sampler":0,
			"source":0
		},
		{
			"sampler":0,
			"source":1
		},
		{
			"sampler":0,
			"source":2
		},
		{
			"sampler":0,
			"source":3
		},
		{
			"sampler":0,
			"source":4
		},
		{
			"sampler":0,
			"source":5
		},
		{
			"sampler":0,
			"source":6
		},
		{
			"sampler":0,
			"source":7
		},
		{
			"sampler":0,
			"source":8
		},
		{
			"sampler":0,
			"source":9
		},
		{
			"sampler":0,
			"source":10
		},
		{
			"sampler":0,
			"source":11
		},
		{
			"sampler":0,
			"source":12
		},
		{
			"sampler":0,
			"source":13
		},
		{
			"sampler":0,
			"source":14
		}
	],
	"images":[
		{
			"mimeType":"image/png",
			"name":"carpet_normal",
			"uri":"textures/carpet_normal.png"
		},
		{
			"mimeType":"image/png",
			"name":"carpet_basecolor",
			"uri":"textures/carpet_basecolor.png"
		},
		{
			"mimeType":"image/png",
			"name":"carpet_orm",
			"uri":"textures/carpet_orm.png"
		},
		{
			"mimeType":"image/png",
			"name":"ceiling_normal",
			"uri":"textures/ceiling_normal.png"
		},
		{
			"mimeType":"image/png",
			"name":"ceiling_basecolor",
			"uri":"textures/ceiling_basecolor.png"
		},
		{
			"mimeType":"image/png",
			"name":"ceiling_orm",
			"uri":"textures/ceiling_orm.png"
		},
		{
			"mimeType":"image/png",
			"name":"painted_metal_normal",
			"uri":"textures/painted_metal_normal.png"
		},
		{
			"mimeType":"image/png",
			"name":"painted_metal_basecolor",
			"uri":"textures/painted_metal_basecolor.png"
		},
		{
			"mimeType":"image/png",
			"name":"painted_metal_orm",
			"uri":"textures/painted_metal_orm.png"
		},
		{
			"mimeType":"image/png",
			"name":"wallpaper_normal",
			"uri":"textures/wallpaper_normal.png"
		},
		{
			"mimeType":"image/png",
			"name":"wallpaper_basecolor",
			"uri":"textures/wallpaper_basecolor.png"
		},
		{
			"mimeType":"image/png",
			"name":"wallpaper_orm",
			"uri":"textures/wallpaper_orm.png"
		},
		{
			"mimeType":"image/png",
			"name":"baseboard_normal",
			"uri":"textures/baseboard_normal.png"
		},
		{
			"mimeType":"image/png",
			"name":"baseboard_basecolor",
			"uri":"textures/baseboard_basecolor.png"
		},
		{
			"mimeType":"image/png",
			"name":"baseboard_orm",
			"uri":"textures/baseboard_orm.png"
		}
	],
	"accessors":[
		{
			"bufferView":0,
			"componentType":5126,
			"count":24,
			"max":[
				-3.6600000858306885,
				0,
				-18.299999237060547
			],
			"min":[
				-8.539999961853027,
				-0.08399999886751175,
				-25.6200008392334
			],
			"type":"VEC3"
		},
		{
			"bufferView":1,
			"componentType":5126,
			"count":24,
			"type":"VEC3"
		},
		{
			"bufferView":2,
			"componentType":5126,
			"count":24,
			"type":"VEC2"
		},
		{
			"bufferView":3,
			"componentType":5126,
			"count":24,
			"type":"VEC2"
		},
		{
			"bufferView":4,
			"componentType":5126,
			"count":24,
			"type":"VEC4"
		},
		{
			"bufferView":5,
			"componentType":5123,
			"count":24,
			"normalized":true,
			"type":"VEC4"
		},
		{
			"bufferView":6,
			"componentType":5123,
			"count":36,
			"type":"SCALAR"
		},
		{
			"bufferView":7,
			"componentType":5126,
			"count":14164,
			"max":[
				-3.6714999675750732,
				2.735999822616577,
				-18.311498641967773
			],
			"min":[
				-8.528499603271484,
				2.7119998931884766,
				-25.608501434326172
			],
			"type":"VEC3"
		},
		{
			"bufferView":8,
			"componentType":5126,
			"count":14164,
			"type":"VEC3"
		},
		{
			"bufferView":9,
			"componentType":5126,
			"count":14164,
			"type":"VEC2"
		},
		{
			"bufferView":10,
			"componentType":5126,
			"count":14164,
			"type":"VEC2"
		},
		{
			"bufferView":11,
			"componentType":5126,
			"count":14164,
			"type":"VEC4"
		},
		{
			"bufferView":12,
			"componentType":5123,
			"count":14164,
			"normalized":true,
			"type":"VEC4"
		},
		{
			"bufferView":13,
			"componentType":5123,
			"count":43608,
			"type":"SCALAR"
		},
		{
			"bufferView":14,
			"componentType":5126,
			"count":7533,
			"max":[
				-3.6479995250701904,
				2.746000051498413,
				-18.288000106811523
			],
			"min":[
				-8.552000045776367,
				2.7060000896453857,
				-25.631999969482422
			],
			"type":"VEC3"
		},
		{
			"bufferView":15,
			"componentType":5126,
			"count":7533,
			"type":"VEC3"
		},
		{
			"bufferView":16,
			"componentType":5126,
			"count":7533,
			"type":"VEC2"
		},
		{
			"bufferView":17,
			"componentType":5126,
			"count":7533,
			"type":"VEC2"
		},
		{
			"bufferView":18,
			"componentType":5126,
			"count":7533,
			"type":"VEC4"
		},
		{
			"bufferView":19,
			"componentType":5123,
			"count":7533,
			"normalized":true,
			"type":"VEC4"
		},
		{
			"bufferView":20,
			"componentType":5123,
			"count":20520,
			"type":"SCALAR"
		},
		{
			"bufferView":21,
			"componentType":5126,
			"count":1206,
			"max":[
				-3.5799999237060547,
				2.7200000286102295,
				-18.219999313354492
			],
			"min":[
				-8.619999885559082,
				0,
				-25.700000762939453
			],
			"type":"VEC3"
		},
		{
			"bufferView":22,
			"componentType":5126,
			"count":1206,
			"type":"VEC3"
		},
		{
			"bufferView":23,
			"componentType":5126,
			"count":1206,
			"type":"VEC2"
		},
		{
			"bufferView":24,
			"componentType":5126,
			"count":1206,
			"type":"VEC2"
		},
		{
			"bufferView":25,
			"componentType":5126,
			"count":1206,
			"type":"VEC4"
		},
		{
			"bufferView":26,
			"componentType":5123,
			"count":1206,
			"normalized":true,
			"type":"VEC4"
		},
		{
			"bufferView":27,
			"componentType":5123,
			"count":3384,
			"type":"SCALAR"
		},
		{
			"bufferView":28,
			"componentType":5126,
			"count":5787,
			"max":[
				-3.555999994277954,
				0.10763231664896011,
				-18.195999145507812
			],
			"min":[
				-8.644000053405762,
				0.0010000000474974513,
				-25.724000930786133
			],
			"type":"VEC3"
		},
		{
			"bufferView":29,
			"componentType":5126,
			"count":5787,
			"type":"VEC3"
		},
		{
			"bufferView":30,
			"componentType":5126,
			"count":5787,
			"type":"VEC2"
		},
		{
			"bufferView":31,
			"componentType":5126,
			"count":5787,
			"type":"VEC2"
		},
		{
			"bufferView":32,
			"componentType":5126,
			"count":5787,
			"type":"VEC4"
		},
		{
			"bufferView":33,
			"componentType":5123,
			"count":5787,
			"normalized":true,
			"type":"VEC4"
		},
		{
			"bufferView":34,
			"componentType":5123,
			"count":16632,
			"type":"SCALAR"
		}
	],
	"bufferViews":[
		{
			"buffer":0,
			"byteLength":288,
			"byteOffset":0,
			"target":34962
		},
		{
			"buffer":0,
			"byteLength":288,
			"byteOffset":288,
			"target":34962
		},
		{
			"buffer":0,
			"byteLength":192,
			"byteOffset":576,
			"target":34962
		},
		{
			"buffer":0,
			"byteLength":192,
			"byteOffset":768,
			"target":34962
		},
		{
			"buffer":0,
			"byteLength":384,
			"byteOffset":960,
			"target":34962
		},
		{
			"buffer":0,
			"byteLength":192,
			"byteOffset":1344,
			"target":34962
		},
		{
			"buffer":0,
			"byteLength":72,
			"byteOffset":1536,
			"target":34963
		},
		{
			"buffer":0,
			"byteLength":169968,
			"byteOffset":1608,
			"target":34962
		},
		{
			"buffer":0,
			"byteLength":169968,
			"byteOffset":171576,
			"target":34962
		},
		{
			"buffer":0,
			"byteLength":113312,
			"byteOffset":341544,
			"target":34962
		},
		{
			"buffer":0,
			"byteLength":113312,
			"byteOffset":454856,
			"target":34962
		},
		{
			"buffer":0,
			"byteLength":226624,
			"byteOffset":568168,
			"target":34962
		},
		{
			"buffer":0,
			"byteLength":113312,
			"byteOffset":794792,
			"target":34962
		},
		{
			"buffer":0,
			"byteLength":87216,
			"byteOffset":908104,
			"target":34963
		},
		{
			"buffer":0,
			"byteLength":90396,
			"byteOffset":995320,
			"target":34962
		},
		{
			"buffer":0,
			"byteLength":90396,
			"byteOffset":1085716,
			"target":34962
		},
		{
			"buffer":0,
			"byteLength":60264,
			"byteOffset":1176112,
			"target":34962
		},
		{
			"buffer":0,
			"byteLength":60264,
			"byteOffset":1236376,
			"target":34962
		},
		{
			"buffer":0,
			"byteLength":120528,
			"byteOffset":1296640,
			"target":34962
		},
		{
			"buffer":0,
			"byteLength":60264,
			"byteOffset":1417168,
			"target":34962
		},
		{
			"buffer":0,
			"byteLength":41040,
			"byteOffset":1477432,
			"target":34963
		},
		{
			"buffer":0,
			"byteLength":14472,
			"byteOffset":1518472,
			"target":34962
		},
		{
			"buffer":0,
			"byteLength":14472,
			"byteOffset":1532944,
			"target":34962
		},
		{
			"buffer":0,
			"byteLength":9648,
			"byteOffset":1547416,
			"target":34962
		},
		{
			"buffer":0,
			"byteLength":9648,
			"byteOffset":1557064,
			"target":34962
		},
		{
			"buffer":0,
			"byteLength":19296,
			"byteOffset":1566712,
			"target":34962
		},
		{
			"buffer":0,
			"byteLength":9648,
			"byteOffset":1586008,
			"target":34962
		},
		{
			"buffer":0,
			"byteLength":6768,
			"byteOffset":1595656,
			"target":34963
		},
		{
			"buffer":0,
			"byteLength":69444,
			"byteOffset":1602424,
			"target":34962
		},
		{
			"buffer":0,
			"byteLength":69444,
			"byteOffset":1671868,
			"target":34962
		},
		{
			"buffer":0,
			"byteLength":46296,
			"byteOffset":1741312,
			"target":34962
		},
		{
			"buffer":0,
			"byteLength":46296,
			"byteOffset":1787608,
			"target":34962
		},
		{
			"buffer":0,
			"byteLength":92592,
			"byteOffset":1833904,
			"target":34962
		},
		{
			"buffer":0,
			"byteLength":46296,
			"byteOffset":1926496,
			"target":34962
		},
		{
			"buffer":0,
			"byteLength":33264,
			"byteOffset":1972792,
			"target":34963
		}
	],
	"samplers":[
		{
			"magFilter":9729,
			"minFilter":9987
		}
	],
	"buffers":[
		{
			"byteLength":2006056,
			"uri":"short_archive.bin"
		}
	]
}
