{
	"asset":{
		"generator":"Khronos glTF Blender I/O v5.2.40",
		"version":"2.0"
	},
	"extensionsUsed":[
		"KHR_materials_emissive_strength"
	],
	"scene":0,
	"scenes":[
		{
			"name":"Scene",
			"nodes":[
				0
			]
		}
	],
	"nodes":[
		{
			"mesh":0,
			"name":"short_service"
		}
	],
	"materials":[
		{
			"doubleSided":true,
			"name":"carpet",
			"normalTexture":{
				"index":0,
				"scale":0.800000011920929
			},
			"pbrMetallicRoughness":{
				"baseColorTexture":{
					"index":1
				},
				"metallicRoughnessTexture":{
					"index":2
				}
			}
		},
		{
			"doubleSided":true,
			"name":"ceiling",
			"normalTexture":{
				"index":3,
				"scale":0.800000011920929
			},
			"pbrMetallicRoughness":{
				"baseColorTexture":{
					"index":4
				},
				"metallicRoughnessTexture":{
					"index":5
				}
			}
		},
		{
			"doubleSided":true,
			"name":"painted_metal",
			"normalTexture":{
				"index":6,
				"scale":0.800000011920929
			},
			"pbrMetallicRoughness":{
				"baseColorTexture":{
					"index":7
				},
				"metallicRoughnessTexture":{
					"index":8
				}
			}
		},
		{
			"doubleSided":true,
			"name":"wallpaper",
			"normalTexture":{
				"index":9,
				"scale":0.800000011920929
			},
			"pbrMetallicRoughness":{
				"baseColorTexture":{
					"index":10
				},
				"metallicRoughnessTexture":{
					"index":11
				}
			}
		},
		{
			"doubleSided":true,
			"name":"baseboard",
			"normalTexture":{
				"index":12,
				"scale":0.800000011920929
			},
			"pbrMetallicRoughness":{
				"baseColorTexture":{
					"index":13
				},
				"metallicRoughnessTexture":{
					"index":14
				}
			}
		},
		{
			"doubleSided":true,
			"emissiveFactor":[
				1,
				1,
				1
			],
			"emissiveTexture":{
				"index":15
			},
			"extensions":{
				"KHR_materials_emissive_strength":{
					"emissiveStrength":2.4000000953674316
				}
			},
			"name":"fixture_detail",
			"normalTexture":{
				"index":16,
				"scale":0.800000011920929
			},
			"pbrMetallicRoughness":{
				"baseColorTexture":{
					"index":17
				},
				"metallicRoughnessTexture":{
					"index":18
				}
			}
		}
	],
	"meshes":[
		{
			"name":"service_Floor_editable_mesh.001",
			"primitives":[
				{
					"attributes":{
						"POSITION":0,
						"NORMAL":1,
						"TEXCOORD_0":2,
						"TEXCOORD_1":3,
						"TANGENT":4,
						"COLOR_0":5
					},
					"indices":6,
					"material":0
				},
				{
					"attributes":{
						"POSITION":7,
						"NORMAL":8,
						"TEXCOORD_0":9,
						"TEXCOORD_1":10,
						"TANGENT":11,
						"COLOR_0":12
					},
					"indices":13,
					"material":1
				},
				{
					"attributes":{
						"POSITION":14,
						"NORMAL":15,
						"TEXCOORD_0":16,
						"TEXCOORD_1":17,
						"TANGENT":18,
						"COLOR_0":19
					},
					"indices":20,
					"material":2
				},
				{
					"attributes":{
						"POSITION":21,
						"NORMAL":22,
						"TEXCOORD_0":23,
						"TEXCOORD_1":24,
						"TANGENT":25,
						"COLOR_0":26
					},
					"indices":27,
					"material":3
				},
				{
					"attributes":{
						"POSITION":28,
						"NORMAL":29,
						"TEXCOORD_0":30,
						"TEXCOORD_1":31,
						"TANGENT":32,
						"COLOR_0":33
					},
					"indices":34,
					"material":4
				},
				{
					"attributes":{
						"POSITION":35,
						"NORMAL":36,
						"TEXCOORD_0":37,
						"TEXCOORD_1":38,
						"TANGENT":39,
						"COLOR_0":40
					},
					"indices":41,
					"material":5
				}
			]
		}
	],
	"textures":[
		{
			"sampler":0,
			"source":0
		},
		{
			"sampler":0,
			"source":1
		},
		{
			"sampler":0,
			"source":2
		},
		{
			"sampler":0,
			"source":3
		},
		{
			"sampler":0,
			"source":4
		},
		{
			"sampler":0,
			"source":5
		},
		{
			"sampler":0,
			"source":6
		},
		{
			"sampler":0,
			"source":7
		},
		{
			"sampler":0,
			"source":8
		},
		{
			"sampler":0,
			"source":9
		},
		{
			"sampler":0,
			"source":10
		},
		{
			"sampler":0,
			"source":11
		},
		{
			"sampler":0,
			"source":12
		},
		{
			"sampler":0,
			"source":13
		},
		{
			"sampler":0,
			"source":14
		},
		{
			"sampler":0,
			"source":15
		},
		{
			"sampler":0,
			"source":16
		},
		{
			"sampler":0,
			"source":17
		},
		{
			"sampler":0,
			"source":18
		}
	],
	"images":[
		{
			"mimeType":"image/png",
			"name":"carpet_normal",
			"uri":"textures/carpet_normal.png"
		},
		{
			"mimeType":"image/png",
			"name":"carpet_basecolor",
			"uri":"textures/carpet_basecolor.png"
		},
		{
			"mimeType":"image/png",
			"name":"carpet_orm",
			"uri":"textures/carpet_orm.png"
		},
		{
			"mimeType":"image/png",
			"name":"ceiling_normal",
			"uri":"textures/ceiling_normal.png"
		},
		{
			"mimeType":"image/png",
			"name":"ceiling_basecolor",
			"uri":"textures/ceiling_basecolor.png"
		},
		{
			"mimeType":"image/png",
			"name":"ceiling_orm",
			"uri":"textures/ceiling_orm.png"
		},
		{
			"mimeType":"image/png",
			"name":"painted_metal_normal",
			"uri":"textures/painted_metal_normal.png"
		},
		{
			"mimeType":"image/png",
			"name":"painted_metal_basecolor",
			"uri":"textures/painted_metal_basecolor.png"
		},
		{
			"mimeType":"image/png",
			"name":"painted_metal_orm",
			"uri":"textures/painted_metal_orm.png"
		},
		{
			"mimeType":"image/png",
			"name":"wallpaper_normal",
			"uri":"textures/wallpaper_normal.png"
		},
		{
			"mimeType":"image/png",
			"name":"wallpaper_basecolor",
			"uri":"textures/wallpaper_basecolor.png"
		},
		{
			"mimeType":"image/png",
			"name":"wallpaper_orm",
			"uri":"textures/wallpaper_orm.png"
		},
		{
			"mimeType":"image/png",
			"name":"baseboard_normal",
			"uri":"textures/baseboard_normal.png"
		},
		{
			"mimeType":"image/png",
			"name":"baseboard_basecolor",
			"uri":"textures/baseboard_basecolor.png"
		},
		{
			"mimeType":"image/png",
			"name":"baseboard_orm",
			"uri":"textures/baseboard_orm.png"
		},
		{
			"mimeType":"image/png",
			"name":"fixture_detail_emission",
			"uri":"textures/fixture_detail_emission.png"
		},
		{
			"mimeType":"image/png",
			"name":"fixture_detail_normal",
			"uri":"textures/fixture_detail_normal.png"
		},
		{
			"mimeType":"image/png",
			"name":"fixture_detail_basecolor",
			"uri":"textures/fixture_detail_basecolor.png"
		},
		{
			"mimeType":"image/png",
			"name":"fixture_detail_orm",
			"uri":"textures/fixture_detail_orm.png"
		}
	],
	"accessors":[
		{
			"bufferView":0,
			"componentType":5126,
			"count":24,
			"max":[
				17.079999923706055,
				0,
				-4.880000114440918
			],
			"min":[
				9.760000228881836,
				-0.08399999886751175,
				-12.199999809265137
			],
			"type":"VEC3"
		},
		{
			"bufferView":1,
			"componentType":5126,
			"count":24,
			"type":"VEC3"
		},
		{
			"bufferView":2,
			"componentType":5126,
			"count":24,
			"type":"VEC2"
		},
		{
			"bufferView":3,
			"componentType":5126,
			"count":24,
			"type":"VEC2"
		},
		{
			"bufferView":4,
			"componentType":5126,
			"count":24,
			"type":"VEC4"
		},
		{
			"bufferView":5,
			"componentType":5123,
			"count":24,
			"normalized":true,
			"type":"VEC4"
		},
		{
			"bufferView":6,
			"componentType":5123,
			"count":36,
			"type":"SCALAR"
		},
		{
			"bufferView":7,
			"componentType":5126,
			"count":21694,
			"max":[
				17.068498611450195,
				2.495999813079834,
				-4.891499996185303
			],
			"min":[
				9.771499633789062,
				2.4719998836517334,
				-12.18850040435791
			],
			"type":"VEC3"
		},
		{
			"bufferView":8,
			"componentType":5126,
			"count":21694,
			"type":"VEC3"
		},
		{
			"bufferView":9,
			"componentType":5126,
			"count":21694,
			"type":"VEC2"
		},
		{
			"bufferView":10,
			"componentType":5126,
			"count":21694,
			"type":"VEC2"
		},
		{
			"bufferView":11,
			"componentType":5126,
			"count":21694,
			"type":"VEC4"
		},
		{
			"bufferView":12,
			"componentType":5123,
			"count":21694,
			"normalized":true,
			"type":"VEC4"
		},
		{
			"bufferView":13,
			"componentType":5123,
			"count":66360,
			"type":"SCALAR"
		},
		{
			"bufferView":14,
			"componentType":5126,
			"count":11690,
			"max":[
				17.09200096130371,
				2.50600004196167,
				-4.868000030517578
			],
			"min":[
				9.748000144958496,
				0.6164999604225159,
				-12.211999893188477
			],
			"type":"VEC3"
		},
		{
			"bufferView":15,
			"componentType":5126,
			"count":11690,
			"type":"VEC3"
		},
		{
			"bufferView":16,
			"componentType":5126,
			"count":11690,
			"type":"VEC2"
		},
		{
			"bufferView":17,
			"componentType":5126,
			"count":11690,
			"type":"VEC2"
		},
		{
			"bufferView":18,
			"componentType":5126,
			"count":11690,
			"type":"VEC4"
		},
		{
			"bufferView":19,
			"componentType":5123,
			"count":11690,
			"normalized":true,
			"type":"VEC4"
		},
		{
			"bufferView":20,
			"componentType":5123,
			"count":31644,
			"type":"SCALAR"
		},
		{
			"bufferView":21,
			"componentType":5126,
			"count":1430,
			"max":[
				17.15999984741211,
				2.4800000190734863,
				-4.800000190734863
			],
			"min":[
				9.680000305175781,
				0,
				-12.279999732971191
			],
			"type":"VEC3"
		},
		{
			"bufferView":22,
			"componentType":5126,
			"count":1430,
			"type":"VEC3"
		},
		{
			"bufferView":23,
			"componentType":5126,
			"count":1430,
			"type":"VEC2"
		},
		{
			"bufferView":24,
			"componentType":5126,
			"count":1430,
			"type":"VEC2"
		},
		{
			"bufferView":25,
			"componentType":5126,
			"count":1430,
			"type":"VEC4"
		},
		{
			"bufferView":26,
			"componentType":5123,
			"count":1430,
			"normalized":true,
			"type":"VEC4"
		},
		{
			"bufferView":27,
			"componentType":5123,
			"count":3948,
			"type":"SCALAR"
		},
		{
			"bufferView":28,
			"componentType":5126,
			"count":5850,
			"max":[
				17.18400001525879,
				0.10763231664896011,
				-4.776000022888184
			],
			"min":[
				9.656000137329102,
				0.0010000000474974513,
				-12.303999900817871
			],
			"type":"VEC3"
		},
		{
			"bufferView":29,
			"componentType":5126,
			"count":5850,
			"type":"VEC3"
		},
		{
			"bufferView":30,
			"componentType":5126,
			"count":5850,
			"type":"VEC2"
		},
		{
			"bufferView":31,
			"componentType":5126,
			"count":5850,
			"type":"VEC2"
		},
		{
			"bufferView":32,
			"componentType":5126,
			"count":5850,
			"type":"VEC4"
		},
		{
			"bufferView":33,
			"componentType":5123,
			"count":5850,
			"normalized":true,
			"type":"VEC4"
		},
		{
			"bufferView":34,
			"componentType":5123,
			"count":16632,
			"type":"SCALAR"
		},
		{
			"bufferView":35,
			"componentType":5126,
			"count":1065,
			"max":[
				17.000499725341797,
				0.9174999594688416,
				-10.30911922454834
			],
			"min":[
				16.945499420166016,
				0.6424999833106995,
				-10.890881538391113
			],
			"type":"VEC3"
		},
		{
			"bufferView":36,
			"componentType":5126,
			"count":1065,
			"type":"VEC3"
		},
		{
			"bufferView":37,
			"componentType":5126,
			"count":1065,
			"type":"VEC2"
		},
		{
			"bufferView":38,
			"componentType":5126,
			"count":1065,
			"type":"VEC2"
		},
		{
			"bufferView":39,
			"componentType":5126,
			"count":1065,
			"type":"VEC4"
		},
		{
			"bufferView":40,
			"componentType":5123,
			"count":1065,
			"normalized":true,
			"type":"VEC4"
		},
		{
			"bufferView":41,
			"componentType":5123,
			"count":2652,
			"type":"SCALAR"
		}
	],
	"bufferViews":[
		{
			"buffer":0,
			"byteLength":288,
			"byteOffset":0,
			"target":34962
		},
		{
			"buffer":0,
			"byteLength":288,
			"byteOffset":288,
			"target":34962
		},
		{
			"buffer":0,
			"byteLength":192,
			"byteOffset":576,
			"target":34962
		},
		{
			"buffer":0,
			"byteLength":192,
			"byteOffset":768,
			"target":34962
		},
		{
			"buffer":0,
			"byteLength":384,
			"byteOffset":960,
			"target":34962
		},
		{
			"buffer":0,
			"byteLength":192,
			"byteOffset":1344,
			"target":34962
		},
		{
			"buffer":0,
			"byteLength":72,
			"byteOffset":1536,
			"target":34963
		},
		{
			"buffer":0,
			"byteLength":260328,
			"byteOffset":1608,
			"target":34962
		},
		{
			"buffer":0,
			"byteLength":260328,
			"byteOffset":261936,
			"target":34962
		},
		{
			"buffer":0,
			"byteLength":173552,
			"byteOffset":522264,
			"target":34962
		},
		{
			"buffer":0,
			"byteLength":173552,
			"byteOffset":695816,
			"target":34962
		},
		{
			"buffer":0,
			"byteLength":347104,
			"byteOffset":869368,
			"target":34962
		},
		{
			"buffer":0,
			"byteLength":173552,
			"byteOffset":1216472,
			"target":34962
		},
		{
			"buffer":0,
			"byteLength":132720,
			"byteOffset":1390024,
			"target":34963
		},
		{
			"buffer":0,
			"byteLength":140280,
			"byteOffset":1522744,
			"target":34962
		},
		{
			"buffer":0,
			"byteLength":140280,
			"byteOffset":1663024,
			"target":34962
		},
		{
			"buffer":0,
			"byteLength":93520,
			"byteOffset":1803304,
			"target":34962
		},
		{
			"buffer":0,
			"byteLength":93520,
			"byteOffset":1896824,
			"target":34962
		},
		{
			"buffer":0,
			"byteLength":187040,
			"byteOffset":1990344,
			"target":34962
		},
		{
			"buffer":0,
			"byteLength":93520,
			"byteOffset":2177384,
			"target":34962
		},
		{
			"buffer":0,
			"byteLength":63288,
			"byteOffset":2270904,
			"target":34963
		},
		{
			"buffer":0,
			"byteLength":17160,
			"byteOffset":2334192,
			"target":34962
		},
		{
			"buffer":0,
			"byteLength":17160,
			"byteOffset":2351352,
			"target":34962
		},
		{
			"buffer":0,
			"byteLength":11440,
			"byteOffset":2368512,
			"target":34962
		},
		{
			"buffer":0,
			"byteLength":11440,
			"byteOffset":2379952,
			"target":34962
		},
		{
			"buffer":0,
			"byteLength":22880,
			"byteOffset":2391392,
			"target":34962
		},
		{
			"buffer":0,
			"byteLength":11440,
			"byteOffset":2414272,
			"target":34962
		},
		{
			"buffer":0,
			"byteLength":7896,
			"byteOffset":2425712,
			"target":34963
		},
		{
			"buffer":0,
			"byteLength":70200,
			"byteOffset":2433608,
			"target":34962
		},
		{
			"buffer":0,
			"byteLength":70200,
			"byteOffset":2503808,
			"target":34962
		},
		{
			"buffer":0,
			"byteLength":46800,
			"byteOffset":2574008,
			"target":34962
		},
		{
			"buffer":0,
			"byteLength":46800,
			"byteOffset":2620808,
			"target":34962
		},
		{
			"buffer":0,
			"byteLength":93600,
			"byteOffset":2667608,
			"target":34962
		},
		{
			"buffer":0,
			"byteLength":46800,
			"byteOffset":2761208,
			"target":34962
		},
		{
			"buffer":0,
			"byteLength":33264,
			"byteOffset":2808008,
			"target":34963
		},
		{
			"buffer":0,
			"byteLength":12780,
			"byteOffset":2841272,
			"target":34962
		},
		{
			"buffer":0,
			"byteLength":12780,
			"byteOffset":2854052,
			"target":34962
		},
		{
			"buffer":0,
			"byteLength":8520,
			"byteOffset":2866832,
			"target":34962
		},
		{
			"buffer":0,
			"byteLength":8520,
			"byteOffset":2875352,
			"target":34962
		},
		{
			"buffer":0,
			"byteLength":17040,
			"byteOffset":2883872,
			"target":34962
		},
		{
			"buffer":0,
			"byteLength":8520,
			"byteOffset":2900912,
			"target":34962
		},
		{
			"buffer":0,
			"byteLength":5304,
			"byteOffset":2909432,
			"target":34963
		}
	],
	"samplers":[
		{
			"magFilter":9729,
			"minFilter":9987
		}
	],
	"buffers":[
		{
			"byteLength":2914736,
			"uri":"short_service.bin"
		}
	]
}
