{
	"asset":{
		"generator":"Khronos glTF Blender I/O v5.2.40",
		"version":"2.0"
	},
	"scene":0,
	"scenes":[
		{
			"name":"Scene",
			"nodes":[
				0
			]
		}
	],
	"nodes":[
		{
			"mesh":0,
			"name":"short_office_switch"
		}
	],
	"materials":[
		{
			"doubleSided":true,
			"name":"carpet",
			"normalTexture":{
				"index":0,
				"scale":0.800000011920929
			},
			"pbrMetallicRoughness":{
				"baseColorTexture":{
					"index":1
				},
				"metallicRoughnessTexture":{
					"index":2
				}
			}
		},
		{
			"doubleSided":true,
			"name":"ceiling",
			"normalTexture":{
				"index":3,
				"scale":0.800000011920929
			},
			"pbrMetallicRoughness":{
				"baseColorTexture":{
					"index":4
				},
				"metallicRoughnessTexture":{
					"index":5
				}
			}
		},
		{
			"doubleSided":true,
			"name":"painted_metal",
			"normalTexture":{
				"index":6,
				"scale":0.800000011920929
			},
			"pbrMetallicRoughness":{
				"baseColorTexture":{
					"index":7
				},
				"metallicRoughnessTexture":{
					"index":8
				}
			}
		},
		{
			"doubleSided":true,
			"name":"wallpaper",
			"normalTexture":{
				"index":9,
				"scale":0.800000011920929
			},
			"pbrMetallicRoughness":{
				"baseColorTexture":{
					"index":10
				},
				"metallicRoughnessTexture":{
					"index":11
				}
			}
		},
		{
			"doubleSided":true,
			"name":"baseboard",
			"normalTexture":{
				"index":12,
				"scale":0.800000011920929
			},
			"pbrMetallicRoughness":{
				"baseColorTexture":{
					"index":13
				},
				"metallicRoughnessTexture":{
					"index":14
				}
			}
		}
	],
	"meshes":[
		{
			"name":"office_switch_Floor_editable_mesh.001",
			"primitives":[
				{
					"attributes":{
						"POSITION":0,
						"NORMAL":1,
						"TEXCOORD_0":2,
						"TEXCOORD_1":3,
						"TANGENT":4,
						"COLOR_0":5
					},
					"indices":6,
					"material":0
				},
				{
					"attributes":{
						"POSITION":7,
						"NORMAL":8,
						"TEXCOORD_0":9,
						"TEXCOORD_1":10,
						"TANGENT":11,
						"COLOR_0":12
					},
					"indices":13,
					"material":1
				},
				{
					"attributes":{
						"POSITION":14,
						"NORMAL":15,
						"TEXCOORD_0":16,
						"TEXCOORD_1":17,
						"TANGENT":18,
						"COLOR_0":19
					},
					"indices":20,
					"material":2
				},
				{
					"attributes":{
						"POSITION":21,
						"NORMAL":22,
						"TEXCOORD_0":23,
						"TEXCOORD_1":24,
						"TANGENT":25,
						"COLOR_0":26
					},
					"indices":27,
					"material":3
				},
				{
					"attributes":{
						"POSITION":28,
						"NORMAL":29,
						"TEXCOORD_0":30,
						"TEXCOORD_1":31,
						"TANGENT":32,
						"COLOR_0":33
					},
					"indices":34,
					"material":4
				}
			]
		}
	],
	"textures":[
		{
			"sampler":0,
			"source":0
		},
		{
			"sampler":0,
			"source":1
		},
		{
			"sampler":0,
			"source":2
		},
		{
			"sampler":0,
			"source":3
		},
		{
			"sampler":0,
			"source":4
		},
		{
			"sampler":0,
			"source":5
		},
		{
			"sampler":0,
			"source":6
		},
		{
			"sampler":0,
			"source":7
		},
		{
			"sampler":0,
			"source":8
		},
		{
			"sampler":0,
			"source":9
		},
		{
			"sampler":0,
			"source":10
		},
		{
			"sampler":0,
			"source":11
		},
		{
			"sampler":0,
			"source":12
		},
		{
			"sampler":0,
			"source":13
		},
		{
			"sampler":0,
			"source":14
		}
	],
	"images":[
		{
			"mimeType":"image/png",
			"name":"carpet_normal",
			"uri":"textures/carpet_normal.png"
		},
		{
			"mimeType":"image/png",
			"name":"carpet_basecolor",
			"uri":"textures/carpet_basecolor.png"
		},
		{
			"mimeType":"image/png",
			"name":"carpet_orm",
			"uri":"textures/carpet_orm.png"
		},
		{
			"mimeType":"image/png",
			"name":"ceiling_normal",
			"uri":"textures/ceiling_normal.png"
		},
		{
			"mimeType":"image/png",
			"name":"ceiling_basecolor",
			"uri":"textures/ceiling_basecolor.png"
		},
		{
			"mimeType":"image/png",
			"name":"ceiling_orm",
			"uri":"textures/ceiling_orm.png"
		},
		{
			"mimeType":"image/png",
			"name":"painted_metal_normal",
			"uri":"textures/painted_metal_normal.png"
		},
		{
			"mimeType":"image/png",
			"name":"painted_metal_basecolor",
			"uri":"textures/painted_metal_basecolor.png"
		},
		{
			"mimeType":"image/png",
			"name":"painted_metal_orm",
			"uri":"textures/painted_metal_orm.png"
		},
		{
			"mimeType":"image/png",
			"name":"wallpaper_normal",
			"uri":"textures/wallpaper_normal.png"
		},
		{
			"mimeType":"image/png",
			"name":"wallpaper_basecolor",
			"uri":"textures/wallpaper_basecolor.png"
		},
		{
			"mimeType":"image/png",
			"name":"wallpaper_orm",
			"uri":"textures/wallpaper_orm.png"
		},
		{
			"mimeType":"image/png",
			"name":"baseboard_normal",
			"uri":"textures/baseboard_normal.png"
		},
		{
			"mimeType":"image/png",
			"name":"baseboard_basecolor",
			"uri":"textures/baseboard_basecolor.png"
		},
		{
			"mimeType":"image/png",
			"name":"baseboard_orm",
			"uri":"textures/baseboard_orm.png"
		}
	],
	"accessors":[
		{
			"bufferView":0,
			"componentType":5126,
			"count":24,
			"max":[
				1.2200000286102295,
				0,
				-18.299999237060547
			],
			"min":[
				-3.6600000858306885,
				-0.08399999886751175,
				-25.6200008392334
			],
			"type":"VEC3"
		},
		{
			"bufferView":1,
			"componentType":5126,
			"count":24,
			"type":"VEC3"
		},
		{
			"bufferView":2,
			"componentType":5126,
			"count":24,
			"type":"VEC2"
		},
		{
			"bufferView":3,
			"componentType":5126,
			"count":24,
			"type":"VEC2"
		},
		{
			"bufferView":4,
			"componentType":5126,
			"count":24,
			"type":"VEC4"
		},
		{
			"bufferView":5,
			"componentType":5123,
			"count":24,
			"normalized":true,
			"type":"VEC4"
		},
		{
			"bufferView":6,
			"componentType":5123,
			"count":36,
			"type":"SCALAR"
		},
		{
			"bufferView":7,
			"componentType":5126,
			"count":14489,
			"max":[
				1.2085001468658447,
				2.735999822616577,
				-18.311498641967773
			],
			"min":[
				-3.6484999656677246,
				2.7119998931884766,
				-25.608501434326172
			],
			"type":"VEC3"
		},
		{
			"bufferView":8,
			"componentType":5126,
			"count":14489,
			"type":"VEC3"
		},
		{
			"bufferView":9,
			"componentType":5126,
			"count":14489,
			"type":"VEC2"
		},
		{
			"bufferView":10,
			"componentType":5126,
			"count":14489,
			"type":"VEC2"
		},
		{
			"bufferView":11,
			"componentType":5126,
			"count":14489,
			"type":"VEC4"
		},
		{
			"bufferView":12,
			"componentType":5123,
			"count":14489,
			"normalized":true,
			"type":"VEC4"
		},
		{
			"bufferView":13,
			"componentType":5123,
			"count":43608,
			"type":"SCALAR"
		},
		{
			"bufferView":14,
			"componentType":5126,
			"count":7522,
			"max":[
				1.2320005893707275,
				2.746000051498413,
				-18.288000106811523
			],
			"min":[
				-3.6720001697540283,
				2.7060000896453857,
				-25.631999969482422
			],
			"type":"VEC3"
		},
		{
			"bufferView":15,
			"componentType":5126,
			"count":7522,
			"type":"VEC3"
		},
		{
			"bufferView":16,
			"componentType":5126,
			"count":7522,
			"type":"VEC2"
		},
		{
			"bufferView":17,
			"componentType":5126,
			"count":7522,
			"type":"VEC2"
		},
		{
			"bufferView":18,
			"componentType":5126,
			"count":7522,
			"type":"VEC4"
		},
		{
			"bufferView":19,
			"componentType":5123,
			"count":7522,
			"normalized":true,
			"type":"VEC4"
		},
		{
			"bufferView":20,
			"componentType":5123,
			"count":20520,
			"type":"SCALAR"
		},
		{
			"bufferView":21,
			"componentType":5126,
			"count":845,
			"max":[
				1.300000548362732,
				2.7200000286102295,
				-18.219999313354492
			],
			"min":[
				-3.6600000858306885,
				0,
				-25.700000762939453
			],
			"type":"VEC3"
		},
		{
			"bufferView":22,
			"componentType":5126,
			"count":845,
			"type":"VEC3"
		},
		{
			"bufferView":23,
			"componentType":5126,
			"count":845,
			"type":"VEC2"
		},
		{
			"bufferView":24,
			"componentType":5126,
			"count":845,
			"type":"VEC2"
		},
		{
			"bufferView":25,
			"componentType":5126,
			"count":845,
			"type":"VEC4"
		},
		{
			"bufferView":26,
			"componentType":5123,
			"count":845,
			"normalized":true,
			"type":"VEC4"
		},
		{
			"bufferView":27,
			"componentType":5123,
			"count":2256,
			"type":"SCALAR"
		},
		{
			"bufferView":28,
			"componentType":5126,
			"count":3362,
			"max":[
				1.324000597000122,
				0.10763231664896011,
				-18.195999145507812
			],
			"min":[
				-3.6600000858306885,
				0.0010000000474974513,
				-25.724000930786133
			],
			"type":"VEC3"
		},
		{
			"bufferView":29,
			"componentType":5126,
			"count":3362,
			"type":"VEC3"
		},
		{
			"bufferView":30,
			"componentType":5126,
			"count":3362,
			"type":"VEC2"
		},
		{
			"bufferView":31,
			"componentType":5126,
			"count":3362,
			"type":"VEC2"
		},
		{
			"bufferView":32,
			"componentType":5126,
			"count":3362,
			"type":"VEC4"
		},
		{
			"bufferView":33,
			"componentType":5123,
			"count":3362,
			"normalized":true,
			"type":"VEC4"
		},
		{
			"bufferView":34,
			"componentType":5123,
			"count":9504,
			"type":"SCALAR"
		}
	],
	"bufferViews":[
		{
			"buffer":0,
			"byteLength":288,
			"byteOffset":0,
			"target":34962
		},
		{
			"buffer":0,
			"byteLength":288,
			"byteOffset":288,
			"target":34962
		},
		{
			"buffer":0,
			"byteLength":192,
			"byteOffset":576,
			"target":34962
		},
		{
			"buffer":0,
			"byteLength":192,
			"byteOffset":768,
			"target":34962
		},
		{
			"buffer":0,
			"byteLength":384,
			"byteOffset":960,
			"target":34962
		},
		{
			"buffer":0,
			"byteLength":192,
			"byteOffset":1344,
			"target":34962
		},
		{
			"buffer":0,
			"byteLength":72,
			"byteOffset":1536,
			"target":34963
		},
		{
			"buffer":0,
			"byteLength":173868,
			"byteOffset":1608,
			"target":34962
		},
		{
			"buffer":0,
			"byteLength":173868,
			"byteOffset":175476,
			"target":34962
		},
		{
			"buffer":0,
			"byteLength":115912,
			"byteOffset":349344,
			"target":34962
		},
		{
			"buffer":0,
			"byteLength":115912,
			"byteOffset":465256,
			"target":34962
		},
		{
			"buffer":0,
			"byteLength":231824,
			"byteOffset":581168,
			"target":34962
		},
		{
			"buffer":0,
			"byteLength":115912,
			"byteOffset":812992,
			"target":34962
		},
		{
			"buffer":0,
			"byteLength":87216,
			"byteOffset":928904,
			"target":34963
		},
		{
			"buffer":0,
			"byteLength":90264,
			"byteOffset":1016120,
			"target":34962
		},
		{
			"buffer":0,
			"byteLength":90264,
			"byteOffset":1106384,
			"target":34962
		},
		{
			"buffer":0,
			"byteLength":60176,
			"byteOffset":1196648,
			"target":34962
		},
		{
			"buffer":0,
			"byteLength":60176,
			"byteOffset":1256824,
			"target":34962
		},
		{
			"buffer":0,
			"byteLength":120352,
			"byteOffset":1317000,
			"target":34962
		},
		{
			"buffer":0,
			"byteLength":60176,
			"byteOffset":1437352,
			"target":34962
		},
		{
			"buffer":0,
			"byteLength":41040,
			"byteOffset":1497528,
			"target":34963
		},
		{
			"buffer":0,
			"byteLength":10140,
			"byteOffset":1538568,
			"target":34962
		},
		{
			"buffer":0,
			"byteLength":10140,
			"byteOffset":1548708,
			"target":34962
		},
		{
			"buffer":0,
			"byteLength":6760,
			"byteOffset":1558848,
			"target":34962
		},
		{
			"buffer":0,
			"byteLength":6760,
			"byteOffset":1565608,
			"target":34962
		},
		{
			"buffer":0,
			"byteLength":13520,
			"byteOffset":1572368,
			"target":34962
		},
		{
			"buffer":0,
			"byteLength":6760,
			"byteOffset":1585888,
			"target":34962
		},
		{
			"buffer":0,
			"byteLength":4512,
			"byteOffset":1592648,
			"target":34963
		},
		{
			"buffer":0,
			"byteLength":40344,
			"byteOffset":1597160,
			"target":34962
		},
		{
			"buffer":0,
			"byteLength":40344,
			"byteOffset":1637504,
			"target":34962
		},
		{
			"buffer":0,
			"byteLength":26896,
			"byteOffset":1677848,
			"target":34962
		},
		{
			"buffer":0,
			"byteLength":26896,
			"byteOffset":1704744,
			"target":34962
		},
		{
			"buffer":0,
			"byteLength":53792,
			"byteOffset":1731640,
			"target":34962
		},
		{
			"buffer":0,
			"byteLength":26896,
			"byteOffset":1785432,
			"target":34962
		},
		{
			"buffer":0,
			"byteLength":19008,
			"byteOffset":1812328,
			"target":34963
		}
	],
	"samplers":[
		{
			"magFilter":9729,
			"minFilter":9987
		}
	],
	"buffers":[
		{
			"byteLength":1831336,
			"uri":"short_office_switch.bin"
		}
	]
}
