{
	"asset":{
		"generator":"Khronos glTF Blender I/O v5.2.40",
		"version":"2.0"
	},
	"extensionsUsed":[
		"KHR_materials_emissive_strength"
	],
	"scene":0,
	"scenes":[
		{
			"name":"Scene",
			"nodes":[
				0
			]
		}
	],
	"nodes":[
		{
			"mesh":0,
			"name":"wall_vent"
		}
	],
	"materials":[
		{
			"doubleSided":true,
			"emissiveFactor":[
				1,
				1,
				1
			],
			"emissiveTexture":{
				"index":0
			},
			"extensions":{
				"KHR_materials_emissive_strength":{
					"emissiveStrength":2.4000000953674316
				}
			},
			"name":"fixture_detail",
			"normalTexture":{
				"index":1,
				"scale":0.800000011920929
			},
			"pbrMetallicRoughness":{
				"baseColorTexture":{
					"index":2
				},
				"metallicRoughnessTexture":{
					"index":3
				}
			}
		},
		{
			"doubleSided":true,
			"name":"painted_metal",
			"normalTexture":{
				"index":4,
				"scale":0.800000011920929
			},
			"pbrMetallicRoughness":{
				"baseColorTexture":{
					"index":5
				},
				"metallicRoughnessTexture":{
					"index":6
				}
			}
		}
	],
	"meshes":[
		{
			"name":"wall_vent_Recess_editable_mesh.001",
			"primitives":[
				{
					"attributes":{
						"POSITION":0,
						"NORMAL":1,
						"TEXCOORD_0":2,
						"TEXCOORD_1":3,
						"TANGENT":4,
						"COLOR_0":5
					},
					"indices":6,
					"material":0
				},
				{
					"attributes":{
						"POSITION":7,
						"NORMAL":8,
						"TEXCOORD_0":9,
						"TEXCOORD_1":10,
						"TANGENT":11,
						"COLOR_0":12
					},
					"indices":13,
					"material":1
				}
			]
		}
	],
	"textures":[
		{
			"sampler":0,
			"source":0
		},
		{
			"sampler":0,
			"source":1
		},
		{
			"sampler":0,
			"source":2
		},
		{
			"sampler":0,
			"source":3
		},
		{
			"sampler":0,
			"source":4
		},
		{
			"sampler":0,
			"source":5
		},
		{
			"sampler":0,
			"source":6
		}
	],
	"images":[
		{
			"mimeType":"image/png",
			"name":"fixture_detail_emission",
			"uri":"textures/fixture_detail_emission.png"
		},
		{
			"mimeType":"image/png",
			"name":"fixture_detail_normal",
			"uri":"textures/fixture_detail_normal.png"
		},
		{
			"mimeType":"image/png",
			"name":"fixture_detail_basecolor",
			"uri":"textures/fixture_detail_basecolor.png"
		},
		{
			"mimeType":"image/png",
			"name":"fixture_detail_orm",
			"uri":"textures/fixture_detail_orm.png"
		},
		{
			"mimeType":"image/png",
			"name":"painted_metal_normal",
			"uri":"textures/painted_metal_normal.png"
		},
		{
			"mimeType":"image/png",
			"name":"painted_metal_basecolor",
			"uri":"textures/painted_metal_basecolor.png"
		},
		{
			"mimeType":"image/png",
			"name":"painted_metal_orm",
			"uri":"textures/painted_metal_orm.png"
		}
	],
	"accessors":[
		{
			"bufferView":0,
			"componentType":5126,
			"count":1045,
			"max":[
				0.2908807098865509,
				0.13750000298023224,
				0.024500001221895218
			],
			"min":[
				-0.2908807098865509,
				-0.13750000298023224,
				-0.030500000342726707
			],
			"type":"VEC3"
		},
		{
			"bufferView":1,
			"componentType":5126,
			"count":1045,
			"type":"VEC3"
		},
		{
			"bufferView":2,
			"componentType":5126,
			"count":1045,
			"type":"VEC2"
		},
		{
			"bufferView":3,
			"componentType":5126,
			"count":1045,
			"type":"VEC2"
		},
		{
			"bufferView":4,
			"componentType":5126,
			"count":1045,
			"type":"VEC4"
		},
		{
			"bufferView":5,
			"componentType":5123,
			"count":1045,
			"normalized":true,
			"type":"VEC4"
		},
		{
			"bufferView":6,
			"componentType":5123,
			"count":2652,
			"type":"SCALAR"
		},
		{
			"bufferView":7,
			"componentType":5126,
			"count":2810,
			"max":[
				0.3034999966621399,
				0.16349999606609344,
				0.031032858416438103
			],
			"min":[
				-0.3034999966621399,
				-0.16349999606609344,
				-0.007000000216066837
			],
			"type":"VEC3"
		},
		{
			"bufferView":8,
			"componentType":5126,
			"count":2810,
			"type":"VEC3"
		},
		{
			"bufferView":9,
			"componentType":5126,
			"count":2810,
			"type":"VEC2"
		},
		{
			"bufferView":10,
			"componentType":5126,
			"count":2810,
			"type":"VEC2"
		},
		{
			"bufferView":11,
			"componentType":5126,
			"count":2810,
			"type":"VEC4"
		},
		{
			"bufferView":12,
			"componentType":5123,
			"count":2810,
			"normalized":true,
			"type":"VEC4"
		},
		{
			"bufferView":13,
			"componentType":5123,
			"count":7332,
			"type":"SCALAR"
		}
	],
	"bufferViews":[
		{
			"buffer":0,
			"byteLength":12540,
			"byteOffset":0,
			"target":34962
		},
		{
			"buffer":0,
			"byteLength":12540,
			"byteOffset":12540,
			"target":34962
		},
		{
			"buffer":0,
			"byteLength":8360,
			"byteOffset":25080,
			"target":34962
		},
		{
			"buffer":0,
			"byteLength":8360,
			"byteOffset":33440,
			"target":34962
		},
		{
			"buffer":0,
			"byteLength":16720,
			"byteOffset":41800,
			"target":34962
		},
		{
			"buffer":0,
			"byteLength":8360,
			"byteOffset":58520,
			"target":34962
		},
		{
			"buffer":0,
			"byteLength":5304,
			"byteOffset":66880,
			"target":34963
		},
		{
			"buffer":0,
			"byteLength":33720,
			"byteOffset":72184,
			"target":34962
		},
		{
			"buffer":0,
			"byteLength":33720,
			"byteOffset":105904,
			"target":34962
		},
		{
			"buffer":0,
			"byteLength":22480,
			"byteOffset":139624,
			"target":34962
		},
		{
			"buffer":0,
			"byteLength":22480,
			"byteOffset":162104,
			"target":34962
		},
		{
			"buffer":0,
			"byteLength":44960,
			"byteOffset":184584,
			"target":34962
		},
		{
			"buffer":0,
			"byteLength":22480,
			"byteOffset":229544,
			"target":34962
		},
		{
			"buffer":0,
			"byteLength":14664,
			"byteOffset":252024,
			"target":34963
		}
	],
	"samplers":[
		{
			"magFilter":9729,
			"minFilter":9987
		}
	],
	"buffers":[
		{
			"byteLength":266688,
			"uri":"wall_vent.bin"
		}
	]
}
