{
	"asset":{
		"generator":"Khronos glTF Blender I/O v5.2.40",
		"version":"2.0"
	},
	"scene":0,
	"scenes":[
		{
			"name":"Scene",
			"nodes":[
				0
			]
		}
	],
	"nodes":[
		{
			"mesh":0,
			"name":"wall_low_244"
		}
	],
	"materials":[
		{
			"doubleSided":true,
			"name":"wallpaper",
			"normalTexture":{
				"index":0,
				"scale":0.800000011920929
			},
			"pbrMetallicRoughness":{
				"baseColorTexture":{
					"index":1
				},
				"metallicRoughnessTexture":{
					"index":2
				}
			}
		},
		{
			"doubleSided":true,
			"name":"baseboard",
			"normalTexture":{
				"index":3,
				"scale":0.800000011920929
			},
			"pbrMetallicRoughness":{
				"baseColorTexture":{
					"index":4
				},
				"metallicRoughnessTexture":{
					"index":5
				}
			}
		}
	],
	"meshes":[
		{
			"name":"wall_low_244_PaperedShell_editable_mesh.001",
			"primitives":[
				{
					"attributes":{
						"POSITION":0,
						"NORMAL":1,
						"TEXCOORD_0":2,
						"TEXCOORD_1":3,
						"TANGENT":4,
						"COLOR_0":5
					},
					"indices":6,
					"material":0
				},
				{
					"attributes":{
						"POSITION":7,
						"NORMAL":8,
						"TEXCOORD_0":9,
						"TEXCOORD_1":10,
						"TANGENT":11,
						"COLOR_0":12
					},
					"indices":13,
					"material":1
				}
			]
		}
	],
	"textures":[
		{
			"sampler":0,
			"source":0
		},
		{
			"sampler":0,
			"source":1
		},
		{
			"sampler":0,
			"source":2
		},
		{
			"sampler":0,
			"source":3
		},
		{
			"sampler":0,
			"source":4
		},
		{
			"sampler":0,
			"source":5
		}
	],
	"images":[
		{
			"mimeType":"image/png",
			"name":"wallpaper_normal",
			"uri":"textures/wallpaper_normal.png"
		},
		{
			"mimeType":"image/png",
			"name":"wallpaper_basecolor",
			"uri":"textures/wallpaper_basecolor.png"
		},
		{
			"mimeType":"image/png",
			"name":"wallpaper_orm",
			"uri":"textures/wallpaper_orm.png"
		},
		{
			"mimeType":"image/png",
			"name":"baseboard_normal",
			"uri":"textures/baseboard_normal.png"
		},
		{
			"mimeType":"image/png",
			"name":"baseboard_basecolor",
			"uri":"textures/baseboard_basecolor.png"
		},
		{
			"mimeType":"image/png",
			"name":"baseboard_orm",
			"uri":"textures/baseboard_orm.png"
		}
	],
	"accessors":[
		{
			"bufferView":0,
			"componentType":5126,
			"count":204,
			"max":[
				2.440000057220459,
				2.4800000190734863,
				0.07999999821186066
			],
			"min":[
				0,
				0,
				-0.07999999821186066
			],
			"type":"VEC3"
		},
		{
			"bufferView":1,
			"componentType":5126,
			"count":204,
			"type":"VEC3"
		},
		{
			"bufferView":2,
			"componentType":5126,
			"count":204,
			"type":"VEC2"
		},
		{
			"bufferView":3,
			"componentType":5126,
			"count":204,
			"type":"VEC2"
		},
		{
			"bufferView":4,
			"componentType":5126,
			"count":204,
			"type":"VEC4"
		},
		{
			"bufferView":5,
			"componentType":5123,
			"count":204,
			"normalized":true,
			"type":"VEC4"
		},
		{
			"bufferView":6,
			"componentType":5123,
			"count":564,
			"type":"SCALAR"
		},
		{
			"bufferView":7,
			"componentType":5126,
			"count":864,
			"max":[
				2.440000057220459,
				0.10763231664896011,
				0.10400000214576721
			],
			"min":[
				0,
				0.0010000000474974513,
				-0.10400000214576721
			],
			"type":"VEC3"
		},
		{
			"bufferView":8,
			"componentType":5126,
			"count":864,
			"type":"VEC3"
		},
		{
			"bufferView":9,
			"componentType":5126,
			"count":864,
			"type":"VEC2"
		},
		{
			"bufferView":10,
			"componentType":5126,
			"count":864,
			"type":"VEC2"
		},
		{
			"bufferView":11,
			"componentType":5126,
			"count":864,
			"type":"VEC4"
		},
		{
			"bufferView":12,
			"componentType":5123,
			"count":864,
			"normalized":true,
			"type":"VEC4"
		},
		{
			"bufferView":13,
			"componentType":5123,
			"count":2376,
			"type":"SCALAR"
		}
	],
	"bufferViews":[
		{
			"buffer":0,
			"byteLength":2448,
			"byteOffset":0,
			"target":34962
		},
		{
			"buffer":0,
			"byteLength":2448,
			"byteOffset":2448,
			"target":34962
		},
		{
			"buffer":0,
			"byteLength":1632,
			"byteOffset":4896,
			"target":34962
		},
		{
			"buffer":0,
			"byteLength":1632,
			"byteOffset":6528,
			"target":34962
		},
		{
			"buffer":0,
			"byteLength":3264,
			"byteOffset":8160,
			"target":34962
		},
		{
			"buffer":0,
			"byteLength":1632,
			"byteOffset":11424,
			"target":34962
		},
		{
			"buffer":0,
			"byteLength":1128,
			"byteOffset":13056,
			"target":34963
		},
		{
			"buffer":0,
			"byteLength":10368,
			"byteOffset":14184,
			"target":34962
		},
		{
			"buffer":0,
			"byteLength":10368,
			"byteOffset":24552,
			"target":34962
		},
		{
			"buffer":0,
			"byteLength":6912,
			"byteOffset":34920,
			"target":34962
		},
		{
			"buffer":0,
			"byteLength":6912,
			"byteOffset":41832,
			"target":34962
		},
		{
			"buffer":0,
			"byteLength":13824,
			"byteOffset":48744,
			"target":34962
		},
		{
			"buffer":0,
			"byteLength":6912,
			"byteOffset":62568,
			"target":34962
		},
		{
			"buffer":0,
			"byteLength":4752,
			"byteOffset":69480,
			"target":34963
		}
	],
	"samplers":[
		{
			"magFilter":9729,
			"minFilter":9987
		}
	],
	"buffers":[
		{
			"byteLength":74232,
			"uri":"wall_low_244.bin"
		}
	]
}
